<?xml version="1.0" encoding="utf-8" standalone="no"?>
<!DOCTYPE svg PUBLIC "-//W3C//DTD SVG 1.1//EN"
  "http://www.w3.org/Graphics/SVG/1.1/DTD/svg11.dtd">
<svg xmlns:xlink="http://www.w3.org/1999/xlink" width="602.89625pt" height="339.677281pt" viewBox="0 0 602.89625 339.677281" xmlns="http://www.w3.org/2000/svg" version="1.1">
 <metadata>
  <rdf:RDF xmlns:dc="http://purl.org/dc/elements/1.1/" xmlns:cc="http://creativecommons.org/ns#" xmlns:rdf="http://www.w3.org/1999/02/22-rdf-syntax-ns#">
   <cc:Work>
    <dc:type rdf:resource="http://purl.org/dc/dcmitype/StillImage"/>
    <dc:date>2023-03-20T18:07:24.741256</dc:date>
    <dc:format>image/svg+xml</dc:format>
    <dc:creator>
     <cc:Agent>
      <dc:title>Matplotlib v3.6.2, https://matplotlib.org/</dc:title>
     </cc:Agent>
    </dc:creator>
   </cc:Work>
  </rdf:RDF>
 </metadata>
 <defs>
  <style type="text/css">*{stroke-linejoin: round; stroke-linecap: butt}</style>
 </defs>
 <g id="figure_1">
  <g id="patch_1">
   <path d="M 0 339.677281 
L 602.89625 339.677281 
L 602.89625 0 
L 0 0 
z
" style="fill: #ffffff"/>
  </g>
  <g id="axes_1">
   <g id="patch_2">
    <path d="M 37.69625 284.4 
L 595.69625 284.4 
L 595.69625 7.2 
L 37.69625 7.2 
z
" style="fill: #eaeaf2"/>
   </g>
   <g id="matplotlib.axis_1">
    <g id="xtick_1">
     <g id="line2d_1">
      <path d="M 37.69625 284.4 
L 37.69625 7.2 
" clip-path="url(#p870304e22a)" style="fill: none; stroke: #ffffff; stroke-linecap: round"/>
     </g>
     <g id="text_1">
      <!-- Feb -->
      <g style="fill: #262626" transform="translate(27.959531 302.258281) scale(0.11 -0.11)">
       <defs>
        <path id="DejaVuSans-46" d="M 628 4666 
L 3309 4666 
L 3309 4134 
L 1259 4134 
L 1259 2759 
L 3109 2759 
L 3109 2228 
L 1259 2228 
L 1259 0 
L 628 0 
L 628 4666 
z
" transform="scale(0.015625)"/>
        <path id="DejaVuSans-65" d="M 3597 1894 
L 3597 1613 
L 953 1613 
Q 991 1019 1311 708 
Q 1631 397 2203 397 
Q 2534 397 2845 478 
Q 3156 559 3463 722 
L 3463 178 
Q 3153 47 2828 -22 
Q 2503 -91 2169 -91 
Q 1331 -91 842 396 
Q 353 884 353 1716 
Q 353 2575 817 3079 
Q 1281 3584 2069 3584 
Q 2775 3584 3186 3129 
Q 3597 2675 3597 1894 
z
M 3022 2063 
Q 3016 2534 2758 2815 
Q 2500 3097 2075 3097 
Q 1594 3097 1305 2825 
Q 1016 2553 972 2059 
L 3022 2063 
z
" transform="scale(0.015625)"/>
        <path id="DejaVuSans-62" d="M 3116 1747 
Q 3116 2381 2855 2742 
Q 2594 3103 2138 3103 
Q 1681 3103 1420 2742 
Q 1159 2381 1159 1747 
Q 1159 1113 1420 752 
Q 1681 391 2138 391 
Q 2594 391 2855 752 
Q 3116 1113 3116 1747 
z
M 1159 2969 
Q 1341 3281 1617 3432 
Q 1894 3584 2278 3584 
Q 2916 3584 3314 3078 
Q 3713 2572 3713 1747 
Q 3713 922 3314 415 
Q 2916 -91 2278 -91 
Q 1894 -91 1617 61 
Q 1341 213 1159 525 
L 1159 0 
L 581 0 
L 581 4863 
L 1159 4863 
L 1159 2969 
z
" transform="scale(0.015625)"/>
       </defs>
       <use xlink:href="#DejaVuSans-46"/>
       <use xlink:href="#DejaVuSans-65" x="52.019531"/>
       <use xlink:href="#DejaVuSans-62" x="113.542969"/>
      </g>
     </g>
    </g>
    <g id="xtick_2">
     <g id="line2d_2">
      <path d="M 76.658844 284.4 
L 76.658844 7.2 
" clip-path="url(#p870304e22a)" style="fill: none; stroke: #ffffff; stroke-linecap: round"/>
     </g>
     <g id="text_2">
      <!-- Mar -->
      <g style="fill: #262626" transform="translate(66.28189 302.258281) scale(0.11 -0.11)">
       <defs>
        <path id="DejaVuSans-4d" d="M 628 4666 
L 1569 4666 
L 2759 1491 
L 3956 4666 
L 4897 4666 
L 4897 0 
L 4281 0 
L 4281 4097 
L 3078 897 
L 2444 897 
L 1241 4097 
L 1241 0 
L 628 0 
L 628 4666 
z
" transform="scale(0.015625)"/>
        <path id="DejaVuSans-61" d="M 2194 1759 
Q 1497 1759 1228 1600 
Q 959 1441 959 1056 
Q 959 750 1161 570 
Q 1363 391 1709 391 
Q 2188 391 2477 730 
Q 2766 1069 2766 1631 
L 2766 1759 
L 2194 1759 
z
M 3341 1997 
L 3341 0 
L 2766 0 
L 2766 531 
Q 2569 213 2275 61 
Q 1981 -91 1556 -91 
Q 1019 -91 701 211 
Q 384 513 384 1019 
Q 384 1609 779 1909 
Q 1175 2209 1959 2209 
L 2766 2209 
L 2766 2266 
Q 2766 2663 2505 2880 
Q 2244 3097 1772 3097 
Q 1472 3097 1187 3025 
Q 903 2953 641 2809 
L 641 3341 
Q 956 3463 1253 3523 
Q 1550 3584 1831 3584 
Q 2591 3584 2966 3190 
Q 3341 2797 3341 1997 
z
" transform="scale(0.015625)"/>
        <path id="DejaVuSans-72" d="M 2631 2963 
Q 2534 3019 2420 3045 
Q 2306 3072 2169 3072 
Q 1681 3072 1420 2755 
Q 1159 2438 1159 1844 
L 1159 0 
L 581 0 
L 581 3500 
L 1159 3500 
L 1159 2956 
Q 1341 3275 1631 3429 
Q 1922 3584 2338 3584 
Q 2397 3584 2469 3576 
Q 2541 3569 2628 3553 
L 2631 2963 
z
" transform="scale(0.015625)"/>
       </defs>
       <use xlink:href="#DejaVuSans-4d"/>
       <use xlink:href="#DejaVuSans-61" x="86.279297"/>
       <use xlink:href="#DejaVuSans-72" x="147.558594"/>
      </g>
     </g>
    </g>
    <g id="xtick_3">
     <g id="line2d_3">
      <path d="M 119.796001 284.4 
L 119.796001 7.2 
" clip-path="url(#p870304e22a)" style="fill: none; stroke: #ffffff; stroke-linecap: round"/>
     </g>
     <g id="text_3">
      <!-- Apr -->
      <g style="fill: #262626" transform="translate(110.281001 302.258281) scale(0.11 -0.11)">
       <defs>
        <path id="DejaVuSans-41" d="M 2188 4044 
L 1331 1722 
L 3047 1722 
L 2188 4044 
z
M 1831 4666 
L 2547 4666 
L 4325 0 
L 3669 0 
L 3244 1197 
L 1141 1197 
L 716 0 
L 50 0 
L 1831 4666 
z
" transform="scale(0.015625)"/>
        <path id="DejaVuSans-70" d="M 1159 525 
L 1159 -1331 
L 581 -1331 
L 581 3500 
L 1159 3500 
L 1159 2969 
Q 1341 3281 1617 3432 
Q 1894 3584 2278 3584 
Q 2916 3584 3314 3078 
Q 3713 2572 3713 1747 
Q 3713 922 3314 415 
Q 2916 -91 2278 -91 
Q 1894 -91 1617 61 
Q 1341 213 1159 525 
z
M 3116 1747 
Q 3116 2381 2855 2742 
Q 2594 3103 2138 3103 
Q 1681 3103 1420 2742 
Q 1159 2381 1159 1747 
Q 1159 1113 1420 752 
Q 1681 391 2138 391 
Q 2594 391 2855 752 
Q 3116 1113 3116 1747 
z
" transform="scale(0.015625)"/>
       </defs>
       <use xlink:href="#DejaVuSans-41"/>
       <use xlink:href="#DejaVuSans-70" x="68.408203"/>
       <use xlink:href="#DejaVuSans-72" x="131.884766"/>
      </g>
     </g>
    </g>
    <g id="xtick_4">
     <g id="line2d_4">
      <path d="M 161.541637 284.4 
L 161.541637 7.2 
" clip-path="url(#p870304e22a)" style="fill: none; stroke: #ffffff; stroke-linecap: round"/>
     </g>
     <g id="text_4">
      <!-- May -->
      <g style="fill: #262626" transform="translate(150.170387 302.258281) scale(0.11 -0.11)">
       <defs>
        <path id="DejaVuSans-79" d="M 2059 -325 
Q 1816 -950 1584 -1140 
Q 1353 -1331 966 -1331 
L 506 -1331 
L 506 -850 
L 844 -850 
Q 1081 -850 1212 -737 
Q 1344 -625 1503 -206 
L 1606 56 
L 191 3500 
L 800 3500 
L 1894 763 
L 2988 3500 
L 3597 3500 
L 2059 -325 
z
" transform="scale(0.015625)"/>
       </defs>
       <use xlink:href="#DejaVuSans-4d"/>
       <use xlink:href="#DejaVuSans-61" x="86.279297"/>
       <use xlink:href="#DejaVuSans-79" x="147.558594"/>
      </g>
     </g>
    </g>
    <g id="xtick_5">
     <g id="line2d_5">
      <path d="M 204.678794 284.4 
L 204.678794 7.2 
" clip-path="url(#p870304e22a)" style="fill: none; stroke: #ffffff; stroke-linecap: round"/>
     </g>
     <g id="text_5">
      <!-- Jun -->
      <g style="fill: #262626" transform="translate(196.085044 302.258281) scale(0.11 -0.11)">
       <defs>
        <path id="DejaVuSans-4a" d="M 628 4666 
L 1259 4666 
L 1259 325 
Q 1259 -519 939 -900 
Q 619 -1281 -91 -1281 
L -331 -1281 
L -331 -750 
L -134 -750 
Q 284 -750 456 -515 
Q 628 -281 628 325 
L 628 4666 
z
" transform="scale(0.015625)"/>
        <path id="DejaVuSans-75" d="M 544 1381 
L 544 3500 
L 1119 3500 
L 1119 1403 
Q 1119 906 1312 657 
Q 1506 409 1894 409 
Q 2359 409 2629 706 
Q 2900 1003 2900 1516 
L 2900 3500 
L 3475 3500 
L 3475 0 
L 2900 0 
L 2900 538 
Q 2691 219 2414 64 
Q 2138 -91 1772 -91 
Q 1169 -91 856 284 
Q 544 659 544 1381 
z
M 1991 3584 
L 1991 3584 
z
" transform="scale(0.015625)"/>
        <path id="DejaVuSans-6e" d="M 3513 2113 
L 3513 0 
L 2938 0 
L 2938 2094 
Q 2938 2591 2744 2837 
Q 2550 3084 2163 3084 
Q 1697 3084 1428 2787 
Q 1159 2491 1159 1978 
L 1159 0 
L 581 0 
L 581 3500 
L 1159 3500 
L 1159 2956 
Q 1366 3272 1645 3428 
Q 1925 3584 2291 3584 
Q 2894 3584 3203 3211 
Q 3513 2838 3513 2113 
z
" transform="scale(0.015625)"/>
       </defs>
       <use xlink:href="#DejaVuSans-4a"/>
       <use xlink:href="#DejaVuSans-75" x="29.492188"/>
       <use xlink:href="#DejaVuSans-6e" x="92.871094"/>
      </g>
     </g>
    </g>
    <g id="xtick_6">
     <g id="line2d_6">
      <path d="M 246.42443 284.4 
L 246.42443 7.2 
" clip-path="url(#p870304e22a)" style="fill: none; stroke: #ffffff; stroke-linecap: round"/>
     </g>
     <g id="text_6">
      <!-- Jul -->
      <g style="fill: #262626" transform="translate(239.788336 302.258281) scale(0.11 -0.11)">
       <defs>
        <path id="DejaVuSans-6c" d="M 603 4863 
L 1178 4863 
L 1178 0 
L 603 0 
L 603 4863 
z
" transform="scale(0.015625)"/>
       </defs>
       <use xlink:href="#DejaVuSans-4a"/>
       <use xlink:href="#DejaVuSans-75" x="29.492188"/>
       <use xlink:href="#DejaVuSans-6c" x="92.871094"/>
      </g>
     </g>
    </g>
    <g id="xtick_7">
     <g id="line2d_7">
      <path d="M 289.561587 284.4 
L 289.561587 7.2 
" clip-path="url(#p870304e22a)" style="fill: none; stroke: #ffffff; stroke-linecap: round"/>
     </g>
     <g id="text_7">
      <!-- Aug -->
      <g style="fill: #262626" transform="translate(278.821977 302.258281) scale(0.11 -0.11)">
       <defs>
        <path id="DejaVuSans-67" d="M 2906 1791 
Q 2906 2416 2648 2759 
Q 2391 3103 1925 3103 
Q 1463 3103 1205 2759 
Q 947 2416 947 1791 
Q 947 1169 1205 825 
Q 1463 481 1925 481 
Q 2391 481 2648 825 
Q 2906 1169 2906 1791 
z
M 3481 434 
Q 3481 -459 3084 -895 
Q 2688 -1331 1869 -1331 
Q 1566 -1331 1297 -1286 
Q 1028 -1241 775 -1147 
L 775 -588 
Q 1028 -725 1275 -790 
Q 1522 -856 1778 -856 
Q 2344 -856 2625 -561 
Q 2906 -266 2906 331 
L 2906 616 
Q 2728 306 2450 153 
Q 2172 0 1784 0 
Q 1141 0 747 490 
Q 353 981 353 1791 
Q 353 2603 747 3093 
Q 1141 3584 1784 3584 
Q 2172 3584 2450 3431 
Q 2728 3278 2906 2969 
L 2906 3500 
L 3481 3500 
L 3481 434 
z
" transform="scale(0.015625)"/>
       </defs>
       <use xlink:href="#DejaVuSans-41"/>
       <use xlink:href="#DejaVuSans-75" x="68.408203"/>
       <use xlink:href="#DejaVuSans-67" x="131.787109"/>
      </g>
     </g>
    </g>
    <g id="xtick_8">
     <g id="line2d_8">
      <path d="M 332.698744 284.4 
L 332.698744 7.2 
" clip-path="url(#p870304e22a)" style="fill: none; stroke: #ffffff; stroke-linecap: round"/>
     </g>
     <g id="text_8">
      <!-- Sep -->
      <g style="fill: #262626" transform="translate(322.331244 302.258281) scale(0.11 -0.11)">
       <defs>
        <path id="DejaVuSans-53" d="M 3425 4513 
L 3425 3897 
Q 3066 4069 2747 4153 
Q 2428 4238 2131 4238 
Q 1616 4238 1336 4038 
Q 1056 3838 1056 3469 
Q 1056 3159 1242 3001 
Q 1428 2844 1947 2747 
L 2328 2669 
Q 3034 2534 3370 2195 
Q 3706 1856 3706 1288 
Q 3706 609 3251 259 
Q 2797 -91 1919 -91 
Q 1588 -91 1214 -16 
Q 841 59 441 206 
L 441 856 
Q 825 641 1194 531 
Q 1563 422 1919 422 
Q 2459 422 2753 634 
Q 3047 847 3047 1241 
Q 3047 1584 2836 1778 
Q 2625 1972 2144 2069 
L 1759 2144 
Q 1053 2284 737 2584 
Q 422 2884 422 3419 
Q 422 4038 858 4394 
Q 1294 4750 2059 4750 
Q 2388 4750 2728 4690 
Q 3069 4631 3425 4513 
z
" transform="scale(0.015625)"/>
       </defs>
       <use xlink:href="#DejaVuSans-53"/>
       <use xlink:href="#DejaVuSans-65" x="63.476562"/>
       <use xlink:href="#DejaVuSans-70" x="125"/>
      </g>
     </g>
    </g>
    <g id="xtick_9">
     <g id="line2d_9">
      <path d="M 374.44438 284.4 
L 374.44438 7.2 
" clip-path="url(#p870304e22a)" style="fill: none; stroke: #ffffff; stroke-linecap: round"/>
     </g>
     <g id="text_9">
      <!-- Oct -->
      <g style="fill: #262626" transform="translate(364.934536 302.258281) scale(0.11 -0.11)">
       <defs>
        <path id="DejaVuSans-4f" d="M 2522 4238 
Q 1834 4238 1429 3725 
Q 1025 3213 1025 2328 
Q 1025 1447 1429 934 
Q 1834 422 2522 422 
Q 3209 422 3611 934 
Q 4013 1447 4013 2328 
Q 4013 3213 3611 3725 
Q 3209 4238 2522 4238 
z
M 2522 4750 
Q 3503 4750 4090 4092 
Q 4678 3434 4678 2328 
Q 4678 1225 4090 567 
Q 3503 -91 2522 -91 
Q 1538 -91 948 565 
Q 359 1222 359 2328 
Q 359 3434 948 4092 
Q 1538 4750 2522 4750 
z
" transform="scale(0.015625)"/>
        <path id="DejaVuSans-63" d="M 3122 3366 
L 3122 2828 
Q 2878 2963 2633 3030 
Q 2388 3097 2138 3097 
Q 1578 3097 1268 2742 
Q 959 2388 959 1747 
Q 959 1106 1268 751 
Q 1578 397 2138 397 
Q 2388 397 2633 464 
Q 2878 531 3122 666 
L 3122 134 
Q 2881 22 2623 -34 
Q 2366 -91 2075 -91 
Q 1284 -91 818 406 
Q 353 903 353 1747 
Q 353 2603 823 3093 
Q 1294 3584 2113 3584 
Q 2378 3584 2631 3529 
Q 2884 3475 3122 3366 
z
" transform="scale(0.015625)"/>
        <path id="DejaVuSans-74" d="M 1172 4494 
L 1172 3500 
L 2356 3500 
L 2356 3053 
L 1172 3053 
L 1172 1153 
Q 1172 725 1289 603 
Q 1406 481 1766 481 
L 2356 481 
L 2356 0 
L 1766 0 
Q 1100 0 847 248 
Q 594 497 594 1153 
L 594 3053 
L 172 3053 
L 172 3500 
L 594 3500 
L 594 4494 
L 1172 4494 
z
" transform="scale(0.015625)"/>
       </defs>
       <use xlink:href="#DejaVuSans-4f"/>
       <use xlink:href="#DejaVuSans-63" x="78.710938"/>
       <use xlink:href="#DejaVuSans-74" x="133.691406"/>
      </g>
     </g>
    </g>
    <g id="xtick_10">
     <g id="line2d_10">
      <path d="M 417.581537 284.4 
L 417.581537 7.2 
" clip-path="url(#p870304e22a)" style="fill: none; stroke: #ffffff; stroke-linecap: round"/>
     </g>
     <g id="text_10">
      <!-- Nov -->
      <g style="fill: #262626" transform="translate(406.846224 302.258281) scale(0.11 -0.11)">
       <defs>
        <path id="DejaVuSans-4e" d="M 628 4666 
L 1478 4666 
L 3547 763 
L 3547 4666 
L 4159 4666 
L 4159 0 
L 3309 0 
L 1241 3903 
L 1241 0 
L 628 0 
L 628 4666 
z
" transform="scale(0.015625)"/>
        <path id="DejaVuSans-6f" d="M 1959 3097 
Q 1497 3097 1228 2736 
Q 959 2375 959 1747 
Q 959 1119 1226 758 
Q 1494 397 1959 397 
Q 2419 397 2687 759 
Q 2956 1122 2956 1747 
Q 2956 2369 2687 2733 
Q 2419 3097 1959 3097 
z
M 1959 3584 
Q 2709 3584 3137 3096 
Q 3566 2609 3566 1747 
Q 3566 888 3137 398 
Q 2709 -91 1959 -91 
Q 1206 -91 779 398 
Q 353 888 353 1747 
Q 353 2609 779 3096 
Q 1206 3584 1959 3584 
z
" transform="scale(0.015625)"/>
        <path id="DejaVuSans-76" d="M 191 3500 
L 800 3500 
L 1894 563 
L 2988 3500 
L 3597 3500 
L 2284 0 
L 1503 0 
L 191 3500 
z
" transform="scale(0.015625)"/>
       </defs>
       <use xlink:href="#DejaVuSans-4e"/>
       <use xlink:href="#DejaVuSans-6f" x="74.804688"/>
       <use xlink:href="#DejaVuSans-76" x="135.986328"/>
      </g>
     </g>
    </g>
    <g id="xtick_11">
     <g id="line2d_11">
      <path d="M 459.327173 284.4 
L 459.327173 7.2 
" clip-path="url(#p870304e22a)" style="fill: none; stroke: #ffffff; stroke-linecap: round"/>
     </g>
     <g id="text_11">
      <!-- Dec -->
      <g style="fill: #262626" transform="translate(448.683813 302.258281) scale(0.11 -0.11)">
       <defs>
        <path id="DejaVuSans-44" d="M 1259 4147 
L 1259 519 
L 2022 519 
Q 2988 519 3436 956 
Q 3884 1394 3884 2338 
Q 3884 3275 3436 3711 
Q 2988 4147 2022 4147 
L 1259 4147 
z
M 628 4666 
L 1925 4666 
Q 3281 4666 3915 4102 
Q 4550 3538 4550 2338 
Q 4550 1131 3912 565 
Q 3275 0 1925 0 
L 628 0 
L 628 4666 
z
" transform="scale(0.015625)"/>
       </defs>
       <use xlink:href="#DejaVuSans-44"/>
       <use xlink:href="#DejaVuSans-65" x="77.001953"/>
       <use xlink:href="#DejaVuSans-63" x="138.525391"/>
      </g>
     </g>
    </g>
    <g id="xtick_12">
     <g id="line2d_12">
      <path d="M 502.46433 284.4 
L 502.46433 7.2 
" clip-path="url(#p870304e22a)" style="fill: none; stroke: #ffffff; stroke-linecap: round"/>
     </g>
     <g id="text_12">
      <!-- Jan -->
      <g style="fill: #262626" transform="translate(493.985736 302.258281) scale(0.11 -0.11)">
       <use xlink:href="#DejaVuSans-4a"/>
       <use xlink:href="#DejaVuSans-61" x="29.492188"/>
       <use xlink:href="#DejaVuSans-6e" x="90.771484"/>
      </g>
      <!-- 2023 -->
      <g style="fill: #262626" transform="translate(488.46683 314.575875) scale(0.11 -0.11)">
       <defs>
        <path id="DejaVuSans-32" d="M 1228 531 
L 3431 531 
L 3431 0 
L 469 0 
L 469 531 
Q 828 903 1448 1529 
Q 2069 2156 2228 2338 
Q 2531 2678 2651 2914 
Q 2772 3150 2772 3378 
Q 2772 3750 2511 3984 
Q 2250 4219 1831 4219 
Q 1534 4219 1204 4116 
Q 875 4013 500 3803 
L 500 4441 
Q 881 4594 1212 4672 
Q 1544 4750 1819 4750 
Q 2544 4750 2975 4387 
Q 3406 4025 3406 3419 
Q 3406 3131 3298 2873 
Q 3191 2616 2906 2266 
Q 2828 2175 2409 1742 
Q 1991 1309 1228 531 
z
" transform="scale(0.015625)"/>
        <path id="DejaVuSans-30" d="M 2034 4250 
Q 1547 4250 1301 3770 
Q 1056 3291 1056 2328 
Q 1056 1369 1301 889 
Q 1547 409 2034 409 
Q 2525 409 2770 889 
Q 3016 1369 3016 2328 
Q 3016 3291 2770 3770 
Q 2525 4250 2034 4250 
z
M 2034 4750 
Q 2819 4750 3233 4129 
Q 3647 3509 3647 2328 
Q 3647 1150 3233 529 
Q 2819 -91 2034 -91 
Q 1250 -91 836 529 
Q 422 1150 422 2328 
Q 422 3509 836 4129 
Q 1250 4750 2034 4750 
z
" transform="scale(0.015625)"/>
        <path id="DejaVuSans-33" d="M 2597 2516 
Q 3050 2419 3304 2112 
Q 3559 1806 3559 1356 
Q 3559 666 3084 287 
Q 2609 -91 1734 -91 
Q 1441 -91 1130 -33 
Q 819 25 488 141 
L 488 750 
Q 750 597 1062 519 
Q 1375 441 1716 441 
Q 2309 441 2620 675 
Q 2931 909 2931 1356 
Q 2931 1769 2642 2001 
Q 2353 2234 1838 2234 
L 1294 2234 
L 1294 2753 
L 1863 2753 
Q 2328 2753 2575 2939 
Q 2822 3125 2822 3475 
Q 2822 3834 2567 4026 
Q 2313 4219 1838 4219 
Q 1578 4219 1281 4162 
Q 984 4106 628 3988 
L 628 4550 
Q 988 4650 1302 4700 
Q 1616 4750 1894 4750 
Q 2613 4750 3031 4423 
Q 3450 4097 3450 3541 
Q 3450 3153 3228 2886 
Q 3006 2619 2597 2516 
z
" transform="scale(0.015625)"/>
       </defs>
       <use xlink:href="#DejaVuSans-32"/>
       <use xlink:href="#DejaVuSans-30" x="63.623047"/>
       <use xlink:href="#DejaVuSans-32" x="127.246094"/>
       <use xlink:href="#DejaVuSans-33" x="190.869141"/>
      </g>
     </g>
    </g>
    <g id="xtick_13">
     <g id="line2d_13">
      <path d="M 545.601487 284.4 
L 545.601487 7.2 
" clip-path="url(#p870304e22a)" style="fill: none; stroke: #ffffff; stroke-linecap: round"/>
     </g>
     <g id="text_13">
      <!-- Feb -->
      <g style="fill: #262626" transform="translate(535.864768 302.258281) scale(0.11 -0.11)">
       <use xlink:href="#DejaVuSans-46"/>
       <use xlink:href="#DejaVuSans-65" x="52.019531"/>
       <use xlink:href="#DejaVuSans-62" x="113.542969"/>
      </g>
     </g>
    </g>
    <g id="xtick_14">
     <g id="line2d_14">
      <path d="M 584.56408 284.4 
L 584.56408 7.2 
" clip-path="url(#p870304e22a)" style="fill: none; stroke: #ffffff; stroke-linecap: round"/>
     </g>
     <g id="text_14">
      <!-- Mar -->
      <g style="fill: #262626" transform="translate(574.187127 302.258281) scale(0.11 -0.11)">
       <use xlink:href="#DejaVuSans-4d"/>
       <use xlink:href="#DejaVuSans-61" x="86.279297"/>
       <use xlink:href="#DejaVuSans-72" x="147.558594"/>
      </g>
     </g>
    </g>
    <g id="xtick_15">
     <g id="line2d_15">
      <path d="M 595.69625 284.4 
L 595.69625 7.2 
" clip-path="url(#p870304e22a)" style="fill: none; stroke: #ffffff; stroke-linecap: round"/>
     </g>
    </g>
    <g id="xtick_16"/>
    <g id="xtick_17"/>
    <g id="xtick_18"/>
    <g id="xtick_19"/>
    <g id="xtick_20"/>
    <g id="xtick_21"/>
    <g id="xtick_22"/>
    <g id="xtick_23"/>
    <g id="xtick_24"/>
    <g id="xtick_25"/>
    <g id="xtick_26"/>
    <g id="xtick_27"/>
    <g id="xtick_28"/>
    <g id="xtick_29"/>
    <g id="xtick_30"/>
    <g id="xtick_31"/>
    <g id="xtick_32"/>
    <g id="xtick_33"/>
    <g id="xtick_34"/>
    <g id="xtick_35"/>
    <g id="xtick_36"/>
    <g id="xtick_37"/>
    <g id="xtick_38"/>
    <g id="xtick_39"/>
    <g id="xtick_40"/>
    <g id="xtick_41"/>
    <g id="xtick_42"/>
    <g id="xtick_43"/>
    <g id="xtick_44"/>
    <g id="xtick_45"/>
    <g id="xtick_46"/>
    <g id="xtick_47"/>
    <g id="xtick_48"/>
    <g id="xtick_49"/>
    <g id="xtick_50"/>
    <g id="xtick_51"/>
    <g id="xtick_52"/>
    <g id="xtick_53"/>
    <g id="xtick_54"/>
    <g id="xtick_55"/>
    <g id="xtick_56"/>
    <g id="xtick_57"/>
    <g id="xtick_58"/>
    <g id="xtick_59"/>
    <g id="xtick_60"/>
    <g id="xtick_61"/>
    <g id="xtick_62"/>
    <g id="xtick_63"/>
    <g id="xtick_64"/>
    <g id="xtick_65"/>
    <g id="xtick_66"/>
    <g id="xtick_67"/>
    <g id="xtick_68"/>
    <g id="xtick_69"/>
    <g id="xtick_70"/>
    <g id="xtick_71"/>
    <g id="text_15">
     <!-- date -->
     <g style="fill: #262626" transform="translate(303.16625 329.981656) scale(0.12 -0.12)">
      <defs>
       <path id="DejaVuSans-64" d="M 2906 2969 
L 2906 4863 
L 3481 4863 
L 3481 0 
L 2906 0 
L 2906 525 
Q 2725 213 2448 61 
Q 2172 -91 1784 -91 
Q 1150 -91 751 415 
Q 353 922 353 1747 
Q 353 2572 751 3078 
Q 1150 3584 1784 3584 
Q 2172 3584 2448 3432 
Q 2725 3281 2906 2969 
z
M 947 1747 
Q 947 1113 1208 752 
Q 1469 391 1925 391 
Q 2381 391 2643 752 
Q 2906 1113 2906 1747 
Q 2906 2381 2643 2742 
Q 2381 3103 1925 3103 
Q 1469 3103 1208 2742 
Q 947 2381 947 1747 
z
" transform="scale(0.015625)"/>
      </defs>
      <use xlink:href="#DejaVuSans-64"/>
      <use xlink:href="#DejaVuSans-61" x="63.476562"/>
      <use xlink:href="#DejaVuSans-74" x="124.755859"/>
      <use xlink:href="#DejaVuSans-65" x="163.964844"/>
     </g>
    </g>
   </g>
   <g id="matplotlib.axis_2">
    <g id="ytick_1">
     <g id="line2d_16">
      <path d="M 37.69625 271.8 
L 595.69625 271.8 
" clip-path="url(#p870304e22a)" style="fill: none; stroke: #ffffff; stroke-linecap: round"/>
     </g>
     <g id="text_16">
      <!-- 0 -->
      <g style="fill: #262626" transform="translate(21.1975 275.979141) scale(0.11 -0.11)">
       <use xlink:href="#DejaVuSans-30"/>
      </g>
     </g>
    </g>
    <g id="ytick_2">
     <g id="line2d_17">
      <path d="M 37.69625 218.182979 
L 595.69625 218.182979 
" clip-path="url(#p870304e22a)" style="fill: none; stroke: #ffffff; stroke-linecap: round"/>
     </g>
     <g id="text_17">
      <!-- 50 -->
      <g style="fill: #262626" transform="translate(14.19875 222.362119) scale(0.11 -0.11)">
       <defs>
        <path id="DejaVuSans-35" d="M 691 4666 
L 3169 4666 
L 3169 4134 
L 1269 4134 
L 1269 2991 
Q 1406 3038 1543 3061 
Q 1681 3084 1819 3084 
Q 2600 3084 3056 2656 
Q 3513 2228 3513 1497 
Q 3513 744 3044 326 
Q 2575 -91 1722 -91 
Q 1428 -91 1123 -41 
Q 819 9 494 109 
L 494 744 
Q 775 591 1075 516 
Q 1375 441 1709 441 
Q 2250 441 2565 725 
Q 2881 1009 2881 1497 
Q 2881 1984 2565 2268 
Q 2250 2553 1709 2553 
Q 1456 2553 1204 2497 
Q 953 2441 691 2322 
L 691 4666 
z
" transform="scale(0.015625)"/>
       </defs>
       <use xlink:href="#DejaVuSans-35"/>
       <use xlink:href="#DejaVuSans-30" x="63.623047"/>
      </g>
     </g>
    </g>
    <g id="ytick_3">
     <g id="line2d_18">
      <path d="M 37.69625 164.565957 
L 595.69625 164.565957 
" clip-path="url(#p870304e22a)" style="fill: none; stroke: #ffffff; stroke-linecap: round"/>
     </g>
     <g id="text_18">
      <!-- 100 -->
      <g style="fill: #262626" transform="translate(7.2 168.745098) scale(0.11 -0.11)">
       <defs>
        <path id="DejaVuSans-31" d="M 794 531 
L 1825 531 
L 1825 4091 
L 703 3866 
L 703 4441 
L 1819 4666 
L 2450 4666 
L 2450 531 
L 3481 531 
L 3481 0 
L 794 0 
L 794 531 
z
" transform="scale(0.015625)"/>
       </defs>
       <use xlink:href="#DejaVuSans-31"/>
       <use xlink:href="#DejaVuSans-30" x="63.623047"/>
       <use xlink:href="#DejaVuSans-30" x="127.246094"/>
      </g>
     </g>
    </g>
    <g id="ytick_4">
     <g id="line2d_19">
      <path d="M 37.69625 110.948936 
L 595.69625 110.948936 
" clip-path="url(#p870304e22a)" style="fill: none; stroke: #ffffff; stroke-linecap: round"/>
     </g>
     <g id="text_19">
      <!-- 150 -->
      <g style="fill: #262626" transform="translate(7.2 115.128077) scale(0.11 -0.11)">
       <use xlink:href="#DejaVuSans-31"/>
       <use xlink:href="#DejaVuSans-35" x="63.623047"/>
       <use xlink:href="#DejaVuSans-30" x="127.246094"/>
      </g>
     </g>
    </g>
    <g id="ytick_5">
     <g id="line2d_20">
      <path d="M 37.69625 57.331915 
L 595.69625 57.331915 
" clip-path="url(#p870304e22a)" style="fill: none; stroke: #ffffff; stroke-linecap: round"/>
     </g>
     <g id="text_20">
      <!-- 200 -->
      <g style="fill: #262626" transform="translate(7.2 61.511056) scale(0.11 -0.11)">
       <use xlink:href="#DejaVuSans-32"/>
       <use xlink:href="#DejaVuSans-30" x="63.623047"/>
       <use xlink:href="#DejaVuSans-30" x="127.246094"/>
      </g>
     </g>
    </g>
   </g>
   <g id="line2d_21">
    <path d="M 69.701238 239.629787 
L 71.092759 262.148936 
L 72.48428 265.365957 
L 73.875801 263.221277 
L 75.267322 256.787234 
L 76.658844 258.931915 
L 78.050365 264.293617 
L 79.441886 267.510638 
L 80.833407 269.655319 
L 82.224928 266.438298 
L 83.61645 264.293617 
L 85.007971 264.293617 
L 86.399492 265.365957 
L 89.182534 269.655319 
L 90.574055 268.582979 
L 91.965577 264.293617 
L 93.357098 265.365957 
L 94.748619 265.365957 
L 96.14014 266.438298 
L 97.531661 264.293617 
L 98.923183 267.510638 
L 100.314704 256.787234 
L 101.706225 269.655319 
L 103.097746 267.510638 
L 104.489267 270.72766 
L 105.880789 265.365957 
L 107.27231 268.582979 
L 108.663831 270.72766 
L 110.055352 262.148936 
L 111.446873 268.582979 
L 112.838395 267.510638 
L 114.229916 269.655319 
L 115.621437 268.582979 
L 117.012958 265.365957 
L 118.404479 266.438298 
L 119.796001 269.655319 
L 121.187522 264.293617 
L 122.579043 267.510638 
L 123.970564 263.221277 
L 125.362085 266.438298 
L 126.753607 265.365957 
L 128.145128 270.72766 
L 129.536649 265.365957 
L 130.92817 266.438298 
L 132.319691 251.425532 
L 133.711213 267.510638 
L 135.102734 264.293617 
L 136.494255 257.859574 
L 137.885776 269.655319 
L 139.277297 261.076596 
L 140.668819 264.293617 
L 142.06034 257.859574 
L 143.451861 263.221277 
L 144.843382 249.280851 
L 146.234903 269.655319 
L 147.626425 271.8 
L 149.017946 266.438298 
L 150.409467 254.642553 
L 151.800988 269.655319 
L 153.192509 258.931915 
L 154.584031 260.004255 
L 155.975552 265.365957 
L 158.758594 265.365957 
L 160.150115 269.655319 
L 161.541637 253.570213 
L 162.933158 266.438298 
L 164.324679 250.353191 
L 165.7162 265.365957 
L 167.107721 269.655319 
L 168.499243 266.438298 
L 169.890764 266.438298 
L 171.282285 268.582979 
L 172.673806 267.510638 
L 174.065327 264.293617 
L 176.84837 266.438298 
L 178.239891 264.293617 
L 179.631412 267.510638 
L 181.022933 269.655319 
L 182.414454 250.353191 
L 183.805976 260.004255 
L 185.197497 267.510638 
L 186.589018 268.582979 
L 187.980539 264.293617 
L 189.37206 264.293617 
L 190.763582 267.510638 
L 192.155103 264.293617 
L 193.546624 252.497872 
L 194.938145 268.582979 
L 197.721188 270.72766 
L 199.112709 268.582979 
L 200.50423 265.365957 
L 201.895751 253.570213 
L 203.287272 267.510638 
L 204.678794 265.365957 
L 206.070315 271.8 
L 208.853357 267.510638 
L 210.244878 268.582979 
L 211.6364 258.931915 
L 213.027921 256.787234 
L 215.810963 267.510638 
L 217.202484 270.72766 
L 218.594006 268.582979 
L 219.985527 268.582979 
L 221.377048 252.497872 
L 222.768569 260.004255 
L 224.16009 262.148936 
L 225.551612 270.72766 
L 226.943133 269.655319 
L 228.334654 265.365957 
L 229.726175 266.438298 
L 231.117696 244.991489 
L 232.509218 257.859574 
L 233.900739 263.221277 
L 235.29226 271.8 
L 236.683781 271.8 
L 238.075302 264.293617 
L 239.466824 264.293617 
L 240.858345 255.714894 
L 242.249866 232.123404 
L 243.641387 262.148936 
L 245.032908 270.72766 
L 246.42443 268.582979 
L 247.815951 267.510638 
L 249.207472 270.72766 
L 250.598993 269.655319 
L 251.990514 231.051064 
L 253.382036 262.148936 
L 254.773557 270.72766 
L 256.165078 269.655319 
L 257.556599 266.438298 
L 258.94812 270.72766 
L 260.339642 251.425532 
L 261.731163 260.004255 
L 263.122684 263.221277 
L 264.514205 267.510638 
L 265.905726 269.655319 
L 267.297248 264.293617 
L 268.688769 269.655319 
L 270.08029 269.655319 
L 271.471811 261.076596 
L 272.863332 266.438298 
L 274.254853 269.655319 
L 275.646375 270.72766 
L 277.037896 268.582979 
L 278.429417 271.8 
L 279.820938 268.582979 
L 281.212459 270.72766 
L 282.603981 267.510638 
L 283.995502 267.510638 
L 285.387023 269.655319 
L 286.778544 270.72766 
L 288.170065 268.582979 
L 289.561587 265.365957 
L 290.953108 268.582979 
L 292.344629 268.582979 
L 293.73615 270.72766 
L 295.127671 269.655319 
L 296.519193 270.72766 
L 297.910714 269.655319 
L 300.693756 271.8 
L 302.085277 270.72766 
L 303.476799 268.582979 
L 304.86832 270.72766 
L 306.259841 271.8 
L 307.651362 271.8 
L 309.042883 263.221277 
L 310.434405 267.510638 
L 311.825926 268.582979 
L 313.217447 268.582979 
L 314.608968 271.8 
L 316.000489 269.655319 
L 317.392011 270.72766 
L 318.783532 258.931915 
L 320.175053 251.425532 
L 321.566574 262.148936 
L 322.958095 269.655319 
L 324.349617 271.8 
L 325.741138 267.510638 
L 327.132659 268.582979 
L 331.307223 268.582979 
L 332.698744 271.8 
L 334.090265 271.8 
L 335.481786 269.655319 
L 336.873307 268.582979 
L 338.264829 268.582979 
L 339.65635 267.510638 
L 341.047871 268.582979 
L 342.439392 267.510638 
L 343.830913 271.8 
L 345.222435 269.655319 
L 346.613956 269.655319 
L 348.005477 253.570213 
L 349.396998 251.425532 
L 350.788519 266.438298 
L 352.180041 267.510638 
L 353.571562 269.655319 
L 356.354604 271.8 
L 357.746125 263.221277 
L 359.137647 263.221277 
L 360.529168 267.510638 
L 361.920689 270.72766 
L 363.31221 271.8 
L 364.703731 270.72766 
L 367.486774 270.72766 
L 368.878295 269.655319 
L 370.269816 265.365957 
L 371.661337 270.72766 
L 373.052858 269.655319 
L 374.44438 271.8 
L 375.835901 271.8 
L 377.227422 264.293617 
L 378.618943 270.72766 
L 380.010464 267.510638 
L 381.401986 270.72766 
L 382.793507 271.8 
L 385.576549 271.8 
L 386.96807 244.991489 
L 388.359592 270.72766 
L 389.751113 269.655319 
L 391.142634 270.72766 
L 392.534155 267.510638 
L 393.925676 269.655319 
L 395.317198 269.655319 
L 396.708719 262.148936 
L 398.10024 268.582979 
L 399.491761 266.438298 
L 400.883282 270.72766 
L 402.274804 271.8 
L 403.666325 261.076596 
L 405.057846 270.72766 
L 406.449367 268.582979 
L 407.840888 271.8 
L 410.623931 269.655319 
L 412.015452 270.72766 
L 414.798494 268.582979 
L 416.190016 262.148936 
L 417.581537 268.582979 
L 418.973058 269.655319 
L 420.364579 267.510638 
L 421.7561 270.72766 
L 423.147622 271.8 
L 424.539143 270.72766 
L 425.930664 268.582979 
L 428.713706 268.582979 
L 430.105228 271.8 
L 431.496749 269.655319 
L 432.88827 271.8 
L 434.279791 270.72766 
L 435.671312 267.510638 
L 437.062834 254.642553 
L 438.454355 269.655319 
L 439.845876 270.72766 
L 441.237397 268.582979 
L 442.628918 267.510638 
L 446.803482 270.72766 
L 448.195003 260.004255 
L 449.586524 271.8 
L 450.978046 270.72766 
L 452.369567 270.72766 
L 455.152609 268.582979 
L 459.327173 271.8 
L 460.718694 267.510638 
L 462.110215 269.655319 
L 463.501736 270.72766 
L 464.893257 262.148936 
L 466.284779 270.72766 
L 469.067821 266.438298 
L 470.459342 271.8 
L 471.850863 271.8 
L 473.242385 270.72766 
L 474.633906 265.365957 
L 477.416948 271.8 
L 478.808469 268.582979 
L 480.199991 270.72766 
L 481.591512 268.582979 
L 482.983033 271.8 
L 484.374554 271.8 
L 485.766075 268.582979 
L 487.157597 268.582979 
L 488.549118 270.72766 
L 489.940639 271.8 
L 491.33216 266.438298 
L 492.723681 269.655319 
L 494.115203 268.582979 
L 495.506724 271.8 
L 496.898245 270.72766 
L 498.289766 261.076596 
L 499.681287 271.8 
L 501.072809 264.293617 
L 502.46433 271.8 
L 503.855851 271.8 
L 505.247372 268.582979 
L 506.638893 267.510638 
L 508.030415 271.8 
L 509.421936 271.8 
L 510.813457 269.655319 
L 512.204978 271.8 
L 513.596499 267.510638 
L 514.988021 268.582979 
L 516.379542 271.8 
L 519.162584 271.8 
L 520.554105 261.076596 
L 521.945627 271.8 
L 523.337148 269.655319 
L 524.728669 269.655319 
L 526.12019 271.8 
L 527.511711 270.72766 
L 528.903233 271.8 
L 530.294754 271.8 
L 531.686275 269.655319 
L 533.077796 268.582979 
L 534.469317 270.72766 
L 537.25236 268.582979 
L 538.643881 271.8 
L 540.035402 268.582979 
L 541.426923 270.72766 
L 542.818445 271.8 
L 544.209966 269.655319 
L 545.601487 268.582979 
L 548.384529 270.72766 
L 549.77605 270.72766 
L 551.167572 268.582979 
L 552.559093 271.8 
L 553.950614 270.72766 
L 555.342135 266.438298 
L 556.733656 268.582979 
L 558.125178 266.438298 
L 559.516699 270.72766 
L 560.90822 269.655319 
L 562.299741 271.8 
L 563.691262 270.72766 
L 566.474305 270.72766 
L 567.865826 271.8 
L 572.04039 268.582979 
L 573.431911 271.8 
L 574.823432 268.582979 
L 576.214953 271.8 
L 578.997996 269.655319 
L 580.389517 271.8 
L 581.781038 269.655319 
L 583.172559 271.8 
L 584.56408 269.655319 
L 587.347123 271.8 
L 588.738644 270.72766 
L 590.130165 271.8 
L 591.521686 271.8 
L 594.304729 269.655319 
L 595.69625 262.148936 
L 595.69625 262.148936 
" clip-path="url(#p870304e22a)" style="fill: none; stroke: #4c72b0; stroke-width: 1.5; stroke-linecap: round"/>
   </g>
   <g id="line2d_22">
    <path d="M 65.526674 214.965957 
L 75.267322 217.110638 
L 85.007971 234.268085 
L 94.748619 226.761702 
L 104.489267 242.846809 
L 114.229916 240.702128 
L 123.970564 218.182979 
L 133.711213 211.748936 
L 143.451861 213.893617 
L 153.192509 207.459574 
L 162.933158 222.47234 
L 172.673806 234.268085 
L 182.414454 211.748936 
L 192.155103 228.906383 
L 201.895751 233.195745 
L 211.6364 222.47234 
L 221.377048 216.038298 
L 231.117696 207.459574 
L 240.858345 196.73617 
L 250.598993 209.604255 
L 260.339642 214.965957 
L 270.08029 247.13617 
L 279.820938 252.497872 
L 289.561587 252.497872 
L 299.302235 265.365957 
L 309.042883 249.280851 
L 318.783532 219.255319 
L 328.52418 256.787234 
L 338.264829 252.497872 
L 348.005477 220.32766 
L 357.746125 247.13617 
L 367.486774 258.931915 
L 377.227422 257.859574 
L 386.96807 232.123404 
L 396.708719 240.702128 
L 406.449367 258.931915 
L 416.190016 250.353191 
L 425.930664 258.931915 
L 435.671312 236.412766 
L 445.411961 252.497872 
L 455.152609 257.859574 
L 464.893257 251.425532 
L 474.633906 254.642553 
L 484.374554 256.787234 
L 494.115203 249.280851 
L 503.855851 262.148936 
L 513.596499 253.570213 
L 523.337148 264.293617 
L 533.077796 257.859574 
L 542.818445 258.931915 
L 552.559093 253.570213 
L 562.299741 265.365957 
L 572.04039 262.148936 
L 581.781038 265.365957 
L 591.521686 258.931915 
" clip-path="url(#p870304e22a)" style="fill: none; stroke: #dd8452; stroke-width: 1.5; stroke-linecap: round"/>
   </g>
   <g id="line2d_23">
    <path d="M 37.69625 199.953191 
L 76.658844 103.442553 
L 119.796001 40.174468 
L 161.541637 41.246809 
L 204.678794 19.8 
L 246.42443 100.225532 
L 289.561587 161.348936 
L 332.698744 158.131915 
L 374.44438 164.565957 
L 417.581537 186.012766 
L 459.327173 189.229787 
L 502.46433 220.32766 
L 545.601487 224.617021 
L 584.56408 254.642553 
" clip-path="url(#p870304e22a)" style="fill: none; stroke: #55a868; stroke-width: 1.5; stroke-linecap: round"/>
   </g>
   <g id="patch_3">
    <path d="M 37.69625 284.4 
L 37.69625 7.2 
" style="fill: none; stroke: #ffffff; stroke-width: 1.25; stroke-linejoin: miter; stroke-linecap: square"/>
   </g>
   <g id="patch_4">
    <path d="M 595.69625 284.4 
L 595.69625 7.2 
" style="fill: none; stroke: #ffffff; stroke-width: 1.25; stroke-linejoin: miter; stroke-linecap: square"/>
   </g>
   <g id="patch_5">
    <path d="M 37.69625 284.4 
L 595.69625 284.4 
" style="fill: none; stroke: #ffffff; stroke-width: 1.25; stroke-linejoin: miter; stroke-linecap: square"/>
   </g>
   <g id="patch_6">
    <path d="M 37.69625 7.2 
L 595.69625 7.2 
" style="fill: none; stroke: #ffffff; stroke-width: 1.25; stroke-linejoin: miter; stroke-linecap: square"/>
   </g>
  </g>
 </g>
 <defs>
  <clipPath id="p870304e22a">
   <rect x="37.69625" y="7.2" width="558" height="277.2"/>
  </clipPath>
 </defs>
</svg>
