<?xml version="1.0" encoding="utf-8" standalone="no"?>
<!DOCTYPE svg PUBLIC "-//W3C//DTD SVG 1.1//EN"
  "http://www.w3.org/Graphics/SVG/1.1/DTD/svg11.dtd">
<svg xmlns:xlink="http://www.w3.org/1999/xlink" width="631.223594pt" height="331.538828pt" viewBox="0 0 631.223594 331.538828" xmlns="http://www.w3.org/2000/svg" version="1.1">
 <metadata>
  <rdf:RDF xmlns:dc="http://purl.org/dc/elements/1.1/" xmlns:cc="http://creativecommons.org/ns#" xmlns:rdf="http://www.w3.org/1999/02/22-rdf-syntax-ns#">
   <cc:Work>
    <dc:type rdf:resource="http://purl.org/dc/dcmitype/StillImage"/>
    <dc:date>2023-03-20T18:07:33.117057</dc:date>
    <dc:format>image/svg+xml</dc:format>
    <dc:creator>
     <cc:Agent>
      <dc:title>Matplotlib v3.6.2, https://matplotlib.org/</dc:title>
     </cc:Agent>
    </dc:creator>
   </cc:Work>
  </rdf:RDF>
 </metadata>
 <defs>
  <style type="text/css">*{stroke-linejoin: round; stroke-linecap: butt}</style>
 </defs>
 <g id="figure_1">
  <g id="patch_1">
   <path d="M 0 331.538828 
L 631.223594 331.538828 
L 631.223594 0 
L 0 0 
z
" style="fill: #ffffff"/>
  </g>
  <g id="axes_1">
   <g id="patch_2">
    <path d="M 66.023594 288.579141 
L 624.023594 288.579141 
L 624.023594 11.379141 
L 66.023594 11.379141 
z
" style="fill: #eaeaf2"/>
   </g>
   <g id="matplotlib.axis_1">
    <g id="xtick_1">
     <g id="text_1">
      <!-- 50 -->
      <g style="fill: #262626" transform="translate(131.358177 306.437422) scale(0.11 -0.11)">
       <defs>
        <path id="DejaVuSans-35" d="M 691 4666 
L 3169 4666 
L 3169 4134 
L 1269 4134 
L 1269 2991 
Q 1406 3038 1543 3061 
Q 1681 3084 1819 3084 
Q 2600 3084 3056 2656 
Q 3513 2228 3513 1497 
Q 3513 744 3044 326 
Q 2575 -91 1722 -91 
Q 1428 -91 1123 -41 
Q 819 9 494 109 
L 494 744 
Q 775 591 1075 516 
Q 1375 441 1709 441 
Q 2250 441 2565 725 
Q 2881 1009 2881 1497 
Q 2881 1984 2565 2268 
Q 2250 2553 1709 2553 
Q 1456 2553 1204 2497 
Q 953 2441 691 2322 
L 691 4666 
z
" transform="scale(0.015625)"/>
        <path id="DejaVuSans-30" d="M 2034 4250 
Q 1547 4250 1301 3770 
Q 1056 3291 1056 2328 
Q 1056 1369 1301 889 
Q 1547 409 2034 409 
Q 2525 409 2770 889 
Q 3016 1369 3016 2328 
Q 3016 3291 2770 3770 
Q 2525 4250 2034 4250 
z
M 2034 4750 
Q 2819 4750 3233 4129 
Q 3647 3509 3647 2328 
Q 3647 1150 3233 529 
Q 2819 -91 2034 -91 
Q 1250 -91 836 529 
Q 422 1150 422 2328 
Q 422 3509 836 4129 
Q 1250 4750 2034 4750 
z
" transform="scale(0.015625)"/>
       </defs>
       <use xlink:href="#DejaVuSans-35"/>
       <use xlink:href="#DejaVuSans-30" x="63.623047"/>
      </g>
     </g>
    </g>
    <g id="xtick_2">
     <g id="text_2">
      <!-- 100 -->
      <g style="fill: #262626" transform="translate(201.668326 306.437422) scale(0.11 -0.11)">
       <defs>
        <path id="DejaVuSans-31" d="M 794 531 
L 1825 531 
L 1825 4091 
L 703 3866 
L 703 4441 
L 1819 4666 
L 2450 4666 
L 2450 531 
L 3481 531 
L 3481 0 
L 794 0 
L 794 531 
z
" transform="scale(0.015625)"/>
       </defs>
       <use xlink:href="#DejaVuSans-31"/>
       <use xlink:href="#DejaVuSans-30" x="63.623047"/>
       <use xlink:href="#DejaVuSans-30" x="127.246094"/>
      </g>
     </g>
    </g>
    <g id="xtick_3">
     <g id="text_3">
      <!-- 150 -->
      <g style="fill: #262626" transform="translate(275.47785 306.437422) scale(0.11 -0.11)">
       <use xlink:href="#DejaVuSans-31"/>
       <use xlink:href="#DejaVuSans-35" x="63.623047"/>
       <use xlink:href="#DejaVuSans-30" x="127.246094"/>
      </g>
     </g>
    </g>
    <g id="xtick_4">
     <g id="text_4">
      <!-- 200 -->
      <g style="fill: #262626" transform="translate(349.287374 306.437422) scale(0.11 -0.11)">
       <defs>
        <path id="DejaVuSans-32" d="M 1228 531 
L 3431 531 
L 3431 0 
L 469 0 
L 469 531 
Q 828 903 1448 1529 
Q 2069 2156 2228 2338 
Q 2531 2678 2651 2914 
Q 2772 3150 2772 3378 
Q 2772 3750 2511 3984 
Q 2250 4219 1831 4219 
Q 1534 4219 1204 4116 
Q 875 4013 500 3803 
L 500 4441 
Q 881 4594 1212 4672 
Q 1544 4750 1819 4750 
Q 2544 4750 2975 4387 
Q 3406 4025 3406 3419 
Q 3406 3131 3298 2873 
Q 3191 2616 2906 2266 
Q 2828 2175 2409 1742 
Q 1991 1309 1228 531 
z
" transform="scale(0.015625)"/>
       </defs>
       <use xlink:href="#DejaVuSans-32"/>
       <use xlink:href="#DejaVuSans-30" x="63.623047"/>
       <use xlink:href="#DejaVuSans-30" x="127.246094"/>
      </g>
     </g>
    </g>
    <g id="xtick_5">
     <g id="text_5">
      <!-- 250 -->
      <g style="fill: #262626" transform="translate(423.096897 306.437422) scale(0.11 -0.11)">
       <use xlink:href="#DejaVuSans-32"/>
       <use xlink:href="#DejaVuSans-35" x="63.623047"/>
       <use xlink:href="#DejaVuSans-30" x="127.246094"/>
      </g>
     </g>
    </g>
    <g id="xtick_6">
     <g id="text_6">
      <!-- 300 -->
      <g style="fill: #262626" transform="translate(496.906421 306.437422) scale(0.11 -0.11)">
       <defs>
        <path id="DejaVuSans-33" d="M 2597 2516 
Q 3050 2419 3304 2112 
Q 3559 1806 3559 1356 
Q 3559 666 3084 287 
Q 2609 -91 1734 -91 
Q 1441 -91 1130 -33 
Q 819 25 488 141 
L 488 750 
Q 750 597 1062 519 
Q 1375 441 1716 441 
Q 2309 441 2620 675 
Q 2931 909 2931 1356 
Q 2931 1769 2642 2001 
Q 2353 2234 1838 2234 
L 1294 2234 
L 1294 2753 
L 1863 2753 
Q 2328 2753 2575 2939 
Q 2822 3125 2822 3475 
Q 2822 3834 2567 4026 
Q 2313 4219 1838 4219 
Q 1578 4219 1281 4162 
Q 984 4106 628 3988 
L 628 4550 
Q 988 4650 1302 4700 
Q 1616 4750 1894 4750 
Q 2613 4750 3031 4423 
Q 3450 4097 3450 3541 
Q 3450 3153 3228 2886 
Q 3006 2619 2597 2516 
z
" transform="scale(0.015625)"/>
       </defs>
       <use xlink:href="#DejaVuSans-33"/>
       <use xlink:href="#DejaVuSans-30" x="63.623047"/>
       <use xlink:href="#DejaVuSans-30" x="127.246094"/>
      </g>
     </g>
    </g>
    <g id="xtick_7">
     <g id="text_7">
      <!-- 350 -->
      <g style="fill: #262626" transform="translate(570.715945 306.437422) scale(0.11 -0.11)">
       <use xlink:href="#DejaVuSans-33"/>
       <use xlink:href="#DejaVuSans-35" x="63.623047"/>
       <use xlink:href="#DejaVuSans-30" x="127.246094"/>
      </g>
     </g>
    </g>
    <g id="text_8">
     <!-- Lag -->
     <g style="fill: #262626" transform="translate(334.194531 321.843203) scale(0.12 -0.12)">
      <defs>
       <path id="DejaVuSans-4c" d="M 628 4666 
L 1259 4666 
L 1259 531 
L 3531 531 
L 3531 0 
L 628 0 
L 628 4666 
z
" transform="scale(0.015625)"/>
       <path id="DejaVuSans-61" d="M 2194 1759 
Q 1497 1759 1228 1600 
Q 959 1441 959 1056 
Q 959 750 1161 570 
Q 1363 391 1709 391 
Q 2188 391 2477 730 
Q 2766 1069 2766 1631 
L 2766 1759 
L 2194 1759 
z
M 3341 1997 
L 3341 0 
L 2766 0 
L 2766 531 
Q 2569 213 2275 61 
Q 1981 -91 1556 -91 
Q 1019 -91 701 211 
Q 384 513 384 1019 
Q 384 1609 779 1909 
Q 1175 2209 1959 2209 
L 2766 2209 
L 2766 2266 
Q 2766 2663 2505 2880 
Q 2244 3097 1772 3097 
Q 1472 3097 1187 3025 
Q 903 2953 641 2809 
L 641 3341 
Q 956 3463 1253 3523 
Q 1550 3584 1831 3584 
Q 2591 3584 2966 3190 
Q 3341 2797 3341 1997 
z
" transform="scale(0.015625)"/>
       <path id="DejaVuSans-67" d="M 2906 1791 
Q 2906 2416 2648 2759 
Q 2391 3103 1925 3103 
Q 1463 3103 1205 2759 
Q 947 2416 947 1791 
Q 947 1169 1205 825 
Q 1463 481 1925 481 
Q 2391 481 2648 825 
Q 2906 1169 2906 1791 
z
M 3481 434 
Q 3481 -459 3084 -895 
Q 2688 -1331 1869 -1331 
Q 1566 -1331 1297 -1286 
Q 1028 -1241 775 -1147 
L 775 -588 
Q 1028 -725 1275 -790 
Q 1522 -856 1778 -856 
Q 2344 -856 2625 -561 
Q 2906 -266 2906 331 
L 2906 616 
Q 2728 306 2450 153 
Q 2172 0 1784 0 
Q 1141 0 747 490 
Q 353 981 353 1791 
Q 353 2603 747 3093 
Q 1141 3584 1784 3584 
Q 2172 3584 2450 3431 
Q 2728 3278 2906 2969 
L 2906 3500 
L 3481 3500 
L 3481 434 
z
" transform="scale(0.015625)"/>
      </defs>
      <use xlink:href="#DejaVuSans-4c"/>
      <use xlink:href="#DejaVuSans-61" x="55.712891"/>
      <use xlink:href="#DejaVuSans-67" x="116.992188"/>
     </g>
    </g>
   </g>
   <g id="matplotlib.axis_2">
    <g id="ytick_1">
     <g id="text_9">
      <!-- −1.00 -->
      <g style="fill: #262626" transform="translate(22.81375 292.758281) scale(0.11 -0.11)">
       <defs>
        <path id="DejaVuSans-2212" d="M 678 2272 
L 4684 2272 
L 4684 1741 
L 678 1741 
L 678 2272 
z
" transform="scale(0.015625)"/>
        <path id="DejaVuSans-2e" d="M 684 794 
L 1344 794 
L 1344 0 
L 684 0 
L 684 794 
z
" transform="scale(0.015625)"/>
       </defs>
       <use xlink:href="#DejaVuSans-2212"/>
       <use xlink:href="#DejaVuSans-31" x="83.789062"/>
       <use xlink:href="#DejaVuSans-2e" x="147.412109"/>
       <use xlink:href="#DejaVuSans-30" x="179.199219"/>
       <use xlink:href="#DejaVuSans-30" x="242.822266"/>
      </g>
     </g>
    </g>
    <g id="ytick_2">
     <g id="text_10">
      <!-- −0.75 -->
      <g style="fill: #262626" transform="translate(22.81375 258.108281) scale(0.11 -0.11)">
       <defs>
        <path id="DejaVuSans-37" d="M 525 4666 
L 3525 4666 
L 3525 4397 
L 1831 0 
L 1172 0 
L 2766 4134 
L 525 4134 
L 525 4666 
z
" transform="scale(0.015625)"/>
       </defs>
       <use xlink:href="#DejaVuSans-2212"/>
       <use xlink:href="#DejaVuSans-30" x="83.789062"/>
       <use xlink:href="#DejaVuSans-2e" x="147.412109"/>
       <use xlink:href="#DejaVuSans-37" x="179.199219"/>
       <use xlink:href="#DejaVuSans-35" x="242.822266"/>
      </g>
     </g>
    </g>
    <g id="ytick_3">
     <g id="text_11">
      <!-- −0.50 -->
      <g style="fill: #262626" transform="translate(22.81375 223.458281) scale(0.11 -0.11)">
       <use xlink:href="#DejaVuSans-2212"/>
       <use xlink:href="#DejaVuSans-30" x="83.789062"/>
       <use xlink:href="#DejaVuSans-2e" x="147.412109"/>
       <use xlink:href="#DejaVuSans-35" x="179.199219"/>
       <use xlink:href="#DejaVuSans-30" x="242.822266"/>
      </g>
     </g>
    </g>
    <g id="ytick_4">
     <g id="text_12">
      <!-- −0.25 -->
      <g style="fill: #262626" transform="translate(22.81375 188.808281) scale(0.11 -0.11)">
       <use xlink:href="#DejaVuSans-2212"/>
       <use xlink:href="#DejaVuSans-30" x="83.789062"/>
       <use xlink:href="#DejaVuSans-2e" x="147.412109"/>
       <use xlink:href="#DejaVuSans-32" x="179.199219"/>
       <use xlink:href="#DejaVuSans-35" x="242.822266"/>
      </g>
     </g>
    </g>
    <g id="ytick_5">
     <g id="text_13">
      <!-- 0.00 -->
      <g style="fill: #262626" transform="translate(32.031406 154.158281) scale(0.11 -0.11)">
       <use xlink:href="#DejaVuSans-30"/>
       <use xlink:href="#DejaVuSans-2e" x="63.623047"/>
       <use xlink:href="#DejaVuSans-30" x="95.410156"/>
       <use xlink:href="#DejaVuSans-30" x="159.033203"/>
      </g>
     </g>
    </g>
    <g id="ytick_6">
     <g id="text_14">
      <!-- 0.25 -->
      <g style="fill: #262626" transform="translate(32.031406 119.508281) scale(0.11 -0.11)">
       <use xlink:href="#DejaVuSans-30"/>
       <use xlink:href="#DejaVuSans-2e" x="63.623047"/>
       <use xlink:href="#DejaVuSans-32" x="95.410156"/>
       <use xlink:href="#DejaVuSans-35" x="159.033203"/>
      </g>
     </g>
    </g>
    <g id="ytick_7">
     <g id="text_15">
      <!-- 0.50 -->
      <g style="fill: #262626" transform="translate(32.031406 84.858281) scale(0.11 -0.11)">
       <use xlink:href="#DejaVuSans-30"/>
       <use xlink:href="#DejaVuSans-2e" x="63.623047"/>
       <use xlink:href="#DejaVuSans-35" x="95.410156"/>
       <use xlink:href="#DejaVuSans-30" x="159.033203"/>
      </g>
     </g>
    </g>
    <g id="ytick_8">
     <g id="text_16">
      <!-- 0.75 -->
      <g style="fill: #262626" transform="translate(32.031406 50.208281) scale(0.11 -0.11)">
       <use xlink:href="#DejaVuSans-30"/>
       <use xlink:href="#DejaVuSans-2e" x="63.623047"/>
       <use xlink:href="#DejaVuSans-37" x="95.410156"/>
       <use xlink:href="#DejaVuSans-35" x="159.033203"/>
      </g>
     </g>
    </g>
    <g id="ytick_9">
     <g id="text_17">
      <!-- 1.00 -->
      <g style="fill: #262626" transform="translate(32.031406 15.558281) scale(0.11 -0.11)">
       <use xlink:href="#DejaVuSans-31"/>
       <use xlink:href="#DejaVuSans-2e" x="63.623047"/>
       <use xlink:href="#DejaVuSans-30" x="95.410156"/>
       <use xlink:href="#DejaVuSans-30" x="159.033203"/>
      </g>
     </g>
    </g>
    <g id="text_18">
     <!-- Autocorrelation -->
     <g style="fill: #262626" transform="translate(16.318125 196.101328) rotate(-90) scale(0.12 -0.12)">
      <defs>
       <path id="DejaVuSans-41" d="M 2188 4044 
L 1331 1722 
L 3047 1722 
L 2188 4044 
z
M 1831 4666 
L 2547 4666 
L 4325 0 
L 3669 0 
L 3244 1197 
L 1141 1197 
L 716 0 
L 50 0 
L 1831 4666 
z
" transform="scale(0.015625)"/>
       <path id="DejaVuSans-75" d="M 544 1381 
L 544 3500 
L 1119 3500 
L 1119 1403 
Q 1119 906 1312 657 
Q 1506 409 1894 409 
Q 2359 409 2629 706 
Q 2900 1003 2900 1516 
L 2900 3500 
L 3475 3500 
L 3475 0 
L 2900 0 
L 2900 538 
Q 2691 219 2414 64 
Q 2138 -91 1772 -91 
Q 1169 -91 856 284 
Q 544 659 544 1381 
z
M 1991 3584 
L 1991 3584 
z
" transform="scale(0.015625)"/>
       <path id="DejaVuSans-74" d="M 1172 4494 
L 1172 3500 
L 2356 3500 
L 2356 3053 
L 1172 3053 
L 1172 1153 
Q 1172 725 1289 603 
Q 1406 481 1766 481 
L 2356 481 
L 2356 0 
L 1766 0 
Q 1100 0 847 248 
Q 594 497 594 1153 
L 594 3053 
L 172 3053 
L 172 3500 
L 594 3500 
L 594 4494 
L 1172 4494 
z
" transform="scale(0.015625)"/>
       <path id="DejaVuSans-6f" d="M 1959 3097 
Q 1497 3097 1228 2736 
Q 959 2375 959 1747 
Q 959 1119 1226 758 
Q 1494 397 1959 397 
Q 2419 397 2687 759 
Q 2956 1122 2956 1747 
Q 2956 2369 2687 2733 
Q 2419 3097 1959 3097 
z
M 1959 3584 
Q 2709 3584 3137 3096 
Q 3566 2609 3566 1747 
Q 3566 888 3137 398 
Q 2709 -91 1959 -91 
Q 1206 -91 779 398 
Q 353 888 353 1747 
Q 353 2609 779 3096 
Q 1206 3584 1959 3584 
z
" transform="scale(0.015625)"/>
       <path id="DejaVuSans-63" d="M 3122 3366 
L 3122 2828 
Q 2878 2963 2633 3030 
Q 2388 3097 2138 3097 
Q 1578 3097 1268 2742 
Q 959 2388 959 1747 
Q 959 1106 1268 751 
Q 1578 397 2138 397 
Q 2388 397 2633 464 
Q 2878 531 3122 666 
L 3122 134 
Q 2881 22 2623 -34 
Q 2366 -91 2075 -91 
Q 1284 -91 818 406 
Q 353 903 353 1747 
Q 353 2603 823 3093 
Q 1294 3584 2113 3584 
Q 2378 3584 2631 3529 
Q 2884 3475 3122 3366 
z
" transform="scale(0.015625)"/>
       <path id="DejaVuSans-72" d="M 2631 2963 
Q 2534 3019 2420 3045 
Q 2306 3072 2169 3072 
Q 1681 3072 1420 2755 
Q 1159 2438 1159 1844 
L 1159 0 
L 581 0 
L 581 3500 
L 1159 3500 
L 1159 2956 
Q 1341 3275 1631 3429 
Q 1922 3584 2338 3584 
Q 2397 3584 2469 3576 
Q 2541 3569 2628 3553 
L 2631 2963 
z
" transform="scale(0.015625)"/>
       <path id="DejaVuSans-65" d="M 3597 1894 
L 3597 1613 
L 953 1613 
Q 991 1019 1311 708 
Q 1631 397 2203 397 
Q 2534 397 2845 478 
Q 3156 559 3463 722 
L 3463 178 
Q 3153 47 2828 -22 
Q 2503 -91 2169 -91 
Q 1331 -91 842 396 
Q 353 884 353 1716 
Q 353 2575 817 3079 
Q 1281 3584 2069 3584 
Q 2775 3584 3186 3129 
Q 3597 2675 3597 1894 
z
M 3022 2063 
Q 3016 2534 2758 2815 
Q 2500 3097 2075 3097 
Q 1594 3097 1305 2825 
Q 1016 2553 972 2059 
L 3022 2063 
z
" transform="scale(0.015625)"/>
       <path id="DejaVuSans-6c" d="M 603 4863 
L 1178 4863 
L 1178 0 
L 603 0 
L 603 4863 
z
" transform="scale(0.015625)"/>
       <path id="DejaVuSans-69" d="M 603 3500 
L 1178 3500 
L 1178 0 
L 603 0 
L 603 3500 
z
M 603 4863 
L 1178 4863 
L 1178 4134 
L 603 4134 
L 603 4863 
z
" transform="scale(0.015625)"/>
       <path id="DejaVuSans-6e" d="M 3513 2113 
L 3513 0 
L 2938 0 
L 2938 2094 
Q 2938 2591 2744 2837 
Q 2550 3084 2163 3084 
Q 1697 3084 1428 2787 
Q 1159 2491 1159 1978 
L 1159 0 
L 581 0 
L 581 3500 
L 1159 3500 
L 1159 2956 
Q 1366 3272 1645 3428 
Q 1925 3584 2291 3584 
Q 2894 3584 3203 3211 
Q 3513 2838 3513 2113 
z
" transform="scale(0.015625)"/>
      </defs>
      <use xlink:href="#DejaVuSans-41"/>
      <use xlink:href="#DejaVuSans-75" x="68.408203"/>
      <use xlink:href="#DejaVuSans-74" x="131.787109"/>
      <use xlink:href="#DejaVuSans-6f" x="170.996094"/>
      <use xlink:href="#DejaVuSans-63" x="232.177734"/>
      <use xlink:href="#DejaVuSans-6f" x="287.158203"/>
      <use xlink:href="#DejaVuSans-72" x="348.339844"/>
      <use xlink:href="#DejaVuSans-72" x="387.703125"/>
      <use xlink:href="#DejaVuSans-65" x="426.566406"/>
      <use xlink:href="#DejaVuSans-6c" x="488.089844"/>
      <use xlink:href="#DejaVuSans-61" x="515.873047"/>
      <use xlink:href="#DejaVuSans-74" x="577.152344"/>
      <use xlink:href="#DejaVuSans-69" x="616.361328"/>
      <use xlink:href="#DejaVuSans-6f" x="644.144531"/>
      <use xlink:href="#DejaVuSans-6e" x="705.326172"/>
     </g>
    </g>
   </g>
   <g id="line2d_1">
    <path d="M 66.023594 131.640772 
L 624.023594 131.640772 
" clip-path="url(#pcd23b22531)" style="fill: none; stroke-dasharray: 5.55,2.4; stroke-dashoffset: 0; stroke: #808080; stroke-width: 1.5"/>
   </g>
   <g id="line2d_2">
    <path d="M 66.023594 136.025366 
L 624.023594 136.025366 
" clip-path="url(#pcd23b22531)" style="fill: none; stroke: #808080; stroke-width: 1.5; stroke-linecap: round"/>
   </g>
   <g id="line2d_3">
    <path d="M 66.023594 149.979141 
L 624.023594 149.979141 
" clip-path="url(#pcd23b22531)" style="fill: none; stroke: #000000; stroke-width: 1.5; stroke-linecap: round"/>
   </g>
   <g id="line2d_4">
    <path d="M 66.023594 163.932916 
L 624.023594 163.932916 
" clip-path="url(#pcd23b22531)" style="fill: none; stroke: #808080; stroke-width: 1.5; stroke-linecap: round"/>
   </g>
   <g id="line2d_5">
    <path d="M 66.023594 168.31751 
L 624.023594 168.31751 
" clip-path="url(#pcd23b22531)" style="fill: none; stroke-dasharray: 5.55,2.4; stroke-dashoffset: 0; stroke: #808080; stroke-width: 1.5"/>
   </g>
   <g id="line2d_6">
    <path d="M 66.023594 114.033622 
L 67.499784 135.975515 
L 68.975975 146.856969 
L 70.452165 142.401294 
L 71.928356 137.166885 
L 73.404546 114.825511 
L 74.880737 89.933572 
L 76.356927 106.725129 
L 77.833118 137.063155 
L 79.309308 147.6073 
L 80.785499 154.30299 
L 82.261689 140.765157 
L 83.737879 121.878095 
L 85.21407 104.806296 
L 86.69026 112.934443 
L 88.166451 135.20031 
L 89.642641 147.713254 
L 91.118832 150.151153 
L 92.595022 142.764103 
L 94.071213 124.919204 
L 95.547403 99.815039 
L 97.023594 119.935895 
L 98.499784 133.28077 
L 99.975975 150.212527 
L 101.452165 158.571869 
L 102.928356 150.69968 
L 104.404546 120.886744 
L 105.880737 113.87109 
L 107.356927 120.24081 
L 108.833118 147.450494 
L 110.309308 150.86231 
L 111.785499 149.644941 
L 113.261689 149.007414 
L 116.21407 119.038241 
L 117.69026 120.661323 
L 120.642641 152.504979 
L 122.118832 152.44159 
L 123.595022 146.615929 
L 125.071213 130.129677 
L 126.547403 117.829189 
L 128.023594 124.596834 
L 129.499784 135.753055 
L 130.975975 149.437022 
L 132.452165 149.345391 
L 133.928356 145.799237 
L 135.404546 120.058393 
L 136.880737 117.984629 
L 138.356927 122.753168 
L 139.833118 144.791691 
L 141.309308 148.396835 
L 142.785499 151.581376 
L 144.261689 144.234118 
L 145.737879 129.31895 
L 147.21407 106.594701 
L 148.69026 130.23619 
L 150.166451 136.098093 
L 151.642641 146.748491 
L 153.118832 145.80211 
L 154.595022 147.087954 
L 156.071213 137.135289 
L 157.547403 112.273659 
L 159.023594 120.744818 
L 160.499784 138.658192 
L 161.975975 143.963001 
L 163.452165 156.292242 
L 164.928356 141.143743 
L 166.404546 130.965728 
L 167.880737 118.572391 
L 169.356927 125.813836 
L 170.833118 142.959744 
L 172.309308 145.624989 
L 173.785499 155.608261 
L 175.261689 152.950805 
L 176.737879 132.284493 
L 178.21407 113.484575 
L 179.69026 135.41884 
L 181.166451 135.080754 
L 182.642641 150.113884 
L 184.118832 154.262788 
L 185.595022 155.054149 
L 187.071213 135.879126 
L 188.547403 128.503415 
L 190.023594 131.589332 
L 191.499784 140.62707 
L 192.975975 147.743432 
L 194.452165 161.717356 
L 195.928356 151.319345 
L 197.404546 144.332214 
L 198.880737 132.122651 
L 200.356927 135.377222 
L 201.833118 151.217541 
L 203.309308 152.891754 
L 204.785499 156.063032 
L 206.261689 153.373483 
L 207.737879 136.868262 
L 209.21407 142.870436 
L 210.69026 146.403485 
L 212.166451 149.169138 
L 213.642641 158.555523 
L 215.118832 154.611446 
L 216.595022 151.393186 
L 218.071213 135.331456 
L 219.547403 140.736744 
L 221.023594 144.931145 
L 222.499784 151.602231 
L 223.975975 159.192252 
L 225.452165 151.259447 
L 226.928356 153.87748 
L 228.404546 140.057391 
L 229.880737 133.636768 
L 231.356927 144.736083 
L 232.833118 145.601184 
L 234.309308 153.534358 
L 235.785499 150.547223 
L 237.261689 153.252471 
L 238.737879 141.99992 
L 240.21407 133.769669 
L 241.69026 145.221411 
L 243.166451 148.186027 
L 244.642641 155.660521 
L 246.118832 150.613664 
L 247.595022 142.811716 
L 249.071213 145.780461 
L 250.547403 138.86336 
L 252.023594 141.873473 
L 253.499784 150.414733 
L 254.975975 157.383264 
L 256.452165 159.538837 
L 257.928356 144.350546 
L 259.404546 144.840822 
L 260.880737 134.196497 
L 262.356927 148.753973 
L 263.833118 148.468874 
L 265.309308 157.779454 
L 266.785499 155.408104 
L 268.261689 155.576051 
L 269.737879 148.338826 
L 271.21407 140.48753 
L 272.69026 147.582999 
L 274.166451 151.620155 
L 275.642641 156.388764 
L 277.118832 162.161668 
L 278.595022 156.699773 
L 280.071213 149.416981 
L 281.547403 144.559602 
L 284.499784 155.104755 
L 285.975975 151.911028 
L 287.452165 158.387072 
L 288.928356 159.879367 
L 290.404546 148.990514 
L 291.880737 151.553425 
L 293.356927 149.178296 
L 296.309308 158.827191 
L 297.785499 160.797066 
L 299.261689 158.166138 
L 300.737879 148.410441 
L 302.21407 155.386532 
L 303.69026 150.555612 
L 305.166451 153.342159 
L 306.642641 160.843111 
L 308.118832 163.887311 
L 309.595022 163.40703 
L 311.071213 156.126022 
L 312.547403 150.834637 
L 314.023594 153.676095 
L 315.499784 153.900738 
L 318.452165 160.65434 
L 319.928356 163.056227 
L 321.404546 153.186857 
L 322.880737 153.053368 
L 324.356927 154.278526 
L 325.833118 152.606396 
L 327.309308 155.277486 
L 328.785499 151.327843 
L 330.261689 151.71743 
L 331.737879 154.136501 
L 333.21407 152.860441 
L 334.69026 147.589949 
L 336.166451 157.160107 
L 337.642641 160.636389 
L 339.118832 157.687122 
L 340.595022 155.016402 
L 342.071213 158.636665 
L 343.547403 155.062058 
L 345.023594 157.759466 
L 346.499784 158.323272 
L 347.975975 158.136726 
L 349.452165 161.262436 
L 350.928356 161.00579 
L 352.404546 155.807323 
L 353.880737 151.821528 
L 355.356927 155.782879 
L 356.833118 156.058723 
L 358.309308 156.156569 
L 359.785499 153.893328 
L 361.261689 152.158797 
L 362.737879 157.960224 
L 364.21407 155.731 
L 365.69026 155.351197 
L 367.166451 160.483572 
L 368.642641 153.280295 
L 370.118832 162.234668 
L 371.595022 158.017748 
L 373.071213 161.746049 
L 374.547403 155.550847 
L 376.023594 157.516872 
L 377.499784 160.130915 
L 378.975975 161.431808 
L 380.452165 160.553602 
L 381.928356 159.247164 
L 383.404546 160.368064 
L 384.880737 162.730158 
L 386.356927 154.22507 
L 387.833118 157.208654 
L 389.309308 161.32725 
L 390.785499 161.866452 
L 392.261689 161.541631 
L 393.737879 159.522708 
L 395.21407 157.249912 
L 396.69026 160.18044 
L 398.166451 161.881182 
L 399.642641 157.863154 
L 401.118832 156.384282 
L 402.595022 160.287082 
L 404.071213 161.682749 
L 405.547403 163.54644 
L 407.023594 160.926852 
L 408.499784 159.969131 
L 409.975975 164.066973 
L 411.452165 159.34787 
L 412.928356 163.02504 
L 414.404546 161.612558 
L 415.880737 163.752942 
L 417.356927 160.847247 
L 418.833118 160.29123 
L 420.309308 163.851017 
L 421.785499 157.917458 
L 423.261689 163.597443 
L 424.737879 163.994519 
L 426.21407 162.953364 
L 427.69026 159.153267 
L 429.166451 156.679654 
L 430.642641 161.374662 
L 432.118832 161.082003 
L 433.595022 161.632615 
L 435.071213 163.202641 
L 436.547403 161.039737 
L 438.023594 162.153078 
L 439.499784 157.795956 
L 440.975975 159.876004 
L 442.452165 156.888939 
L 443.928356 160.609681 
L 445.404546 159.157407 
L 446.880737 161.92306 
L 448.356927 155.998776 
L 449.833118 159.507291 
L 451.309308 156.743792 
L 452.785499 156.889059 
L 454.261689 154.870207 
L 455.737879 157.882385 
L 457.21407 158.468939 
L 458.69026 158.054978 
L 460.166451 157.205295 
L 461.642641 157.246234 
L 463.118832 157.410401 
L 464.595022 159.611401 
L 466.071213 155.674882 
L 467.547403 160.250234 
L 469.023594 156.804489 
L 470.499784 157.991779 
L 471.975975 158.059247 
L 473.452165 159.456909 
L 474.928356 159.133942 
L 476.404546 156.834617 
L 477.880737 159.587007 
L 479.356927 155.784985 
L 480.833118 157.622218 
L 482.309308 156.821742 
L 483.785499 155.272909 
L 485.261689 157.979941 
L 486.737879 158.500175 
L 488.21407 157.534824 
L 489.69026 157.261134 
L 491.166451 157.82494 
L 492.642641 157.403559 
L 494.118832 155.72009 
L 495.595022 157.146135 
L 497.071213 158.280369 
L 498.547403 158.84232 
L 500.023594 156.582788 
L 501.499784 157.881826 
L 502.975975 154.889057 
L 504.452165 156.26404 
L 505.928356 156.102098 
L 507.404546 156.969124 
L 508.880737 157.334037 
L 510.356927 156.056052 
L 511.833118 154.565841 
L 513.309308 155.533345 
L 514.785499 156.032755 
L 516.261689 157.367806 
L 517.737879 156.823128 
L 519.21407 154.656446 
L 520.69026 157.162591 
L 522.166451 154.133739 
L 523.642641 157.750432 
L 525.118832 155.667114 
L 526.595022 155.886192 
L 528.071213 155.089495 
L 529.547403 156.51554 
L 531.023594 155.622215 
L 532.499784 156.134889 
L 533.975975 155.652823 
L 535.452165 154.949045 
L 536.928356 152.808891 
L 538.404546 156.044634 
L 539.880737 155.950937 
L 541.356927 155.478215 
L 542.833118 151.323765 
L 544.309308 155.177358 
L 545.785499 153.865285 
L 547.261689 153.839904 
L 548.737879 154.221862 
L 550.21407 153.631757 
L 551.69026 153.704789 
L 553.166451 153.11661 
L 554.642641 152.776599 
L 556.118832 151.220066 
L 557.595022 152.693603 
L 559.071213 152.795089 
L 560.547403 153.12777 
L 562.023594 152.918475 
L 563.499784 152.224112 
L 564.975975 151.840529 
L 566.452165 153.111184 
L 567.928356 151.681589 
L 569.404546 152.342093 
L 570.880737 152.58 
L 572.356927 152.027763 
L 573.833118 152.311167 
L 575.309308 151.650892 
L 576.785499 152.830552 
L 578.261689 152.475353 
L 579.737879 151.019229 
L 581.21407 152.324042 
L 582.69026 151.756616 
L 584.166451 153.097371 
L 587.118832 153.692562 
L 588.595022 153.310834 
L 590.071213 152.057452 
L 591.547403 152.708542 
L 593.023594 152.827071 
L 597.452165 151.740718 
L 598.928356 152.58692 
L 600.404546 152.114268 
L 601.880737 153.13098 
L 604.833118 152.066228 
L 606.309308 152.571342 
L 607.785499 152.019105 
L 609.261689 152.759194 
L 610.737879 152.466535 
L 612.21407 152.641901 
L 613.69026 152.442091 
L 615.166451 151.438873 
L 616.642641 151.28841 
L 618.118832 151.465771 
L 619.595022 151.135244 
L 621.071213 150.46363 
L 622.547403 148.370897 
L 624.023594 149.979141 
L 624.023594 149.979141 
" clip-path="url(#pcd23b22531)" style="fill: none; stroke: #4c72b0; stroke-width: 1.5; stroke-linecap: round"/>
   </g>
   <g id="patch_3">
    <path d="M 66.023594 288.579141 
L 66.023594 11.379141 
" style="fill: none; stroke: #ffffff; stroke-width: 1.25; stroke-linejoin: miter; stroke-linecap: square"/>
   </g>
   <g id="patch_4">
    <path d="M 624.023594 288.579141 
L 624.023594 11.379141 
" style="fill: none; stroke: #ffffff; stroke-width: 1.25; stroke-linejoin: miter; stroke-linecap: square"/>
   </g>
   <g id="patch_5">
    <path d="M 66.023594 288.579141 
L 624.023594 288.579141 
" style="fill: none; stroke: #ffffff; stroke-width: 1.25; stroke-linejoin: miter; stroke-linecap: square"/>
   </g>
   <g id="patch_6">
    <path d="M 66.023594 11.379141 
L 624.023594 11.379141 
" style="fill: none; stroke: #ffffff; stroke-width: 1.25; stroke-linejoin: miter; stroke-linecap: square"/>
   </g>
  </g>
 </g>
 <defs>
  <clipPath id="pcd23b22531">
   <rect x="66.023594" y="11.379141" width="558" height="277.2"/>
  </clipPath>
 </defs>
</svg>
