<?xml version="1.0" encoding="utf-8" standalone="no"?>
<!DOCTYPE svg PUBLIC "-//W3C//DTD SVG 1.1//EN"
  "http://www.w3.org/Graphics/SVG/1.1/DTD/svg11.dtd">
<svg xmlns:xlink="http://www.w3.org/1999/xlink" width="595.8975pt" height="354.795406pt" viewBox="0 0 595.8975 354.795406" xmlns="http://www.w3.org/2000/svg" version="1.1">
 <metadata>
  <rdf:RDF xmlns:dc="http://purl.org/dc/elements/1.1/" xmlns:cc="http://creativecommons.org/ns#" xmlns:rdf="http://www.w3.org/1999/02/22-rdf-syntax-ns#">
   <cc:Work>
    <dc:type rdf:resource="http://purl.org/dc/dcmitype/StillImage"/>
    <dc:date>2023-03-20T18:09:20.760128</dc:date>
    <dc:format>image/svg+xml</dc:format>
    <dc:creator>
     <cc:Agent>
      <dc:title>Matplotlib v3.6.2, https://matplotlib.org/</dc:title>
     </cc:Agent>
    </dc:creator>
   </cc:Work>
  </rdf:RDF>
 </metadata>
 <defs>
  <style type="text/css">*{stroke-linejoin: round; stroke-linecap: butt}</style>
 </defs>
 <g id="figure_1">
  <g id="patch_1">
   <path d="M 0 354.795406 
L 595.8975 354.795406 
L 595.8975 0 
L 0 0 
z
" style="fill: #ffffff"/>
  </g>
  <g id="axes_1">
   <g id="patch_2">
    <path d="M 30.6975 299.518125 
L 588.6975 299.518125 
L 588.6975 22.318125 
L 30.6975 22.318125 
z
" style="fill: #eaeaf2"/>
   </g>
   <g id="matplotlib.axis_1">
    <g id="xtick_1">
     <g id="line2d_1">
      <path d="M 30.6975 299.518125 
L 30.6975 22.318125 
" clip-path="url(#peae4f9c95b)" style="fill: none; stroke: #ffffff; stroke-linecap: round"/>
     </g>
    </g>
    <g id="xtick_2">
     <g id="line2d_2">
      <path d="M 38.078452 299.518125 
L 38.078452 22.318125 
" clip-path="url(#peae4f9c95b)" style="fill: none; stroke: #ffffff; stroke-linecap: round"/>
     </g>
     <g id="text_1">
      <!-- Mar -->
      <g style="fill: #262626" transform="translate(27.701499 317.376406) scale(0.11 -0.11)">
       <defs>
        <path id="DejaVuSans-4d" d="M 628 4666 
L 1569 4666 
L 2759 1491 
L 3956 4666 
L 4897 4666 
L 4897 0 
L 4281 0 
L 4281 4097 
L 3078 897 
L 2444 897 
L 1241 4097 
L 1241 0 
L 628 0 
L 628 4666 
z
" transform="scale(0.015625)"/>
        <path id="DejaVuSans-61" d="M 2194 1759 
Q 1497 1759 1228 1600 
Q 959 1441 959 1056 
Q 959 750 1161 570 
Q 1363 391 1709 391 
Q 2188 391 2477 730 
Q 2766 1069 2766 1631 
L 2766 1759 
L 2194 1759 
z
M 3341 1997 
L 3341 0 
L 2766 0 
L 2766 531 
Q 2569 213 2275 61 
Q 1981 -91 1556 -91 
Q 1019 -91 701 211 
Q 384 513 384 1019 
Q 384 1609 779 1909 
Q 1175 2209 1959 2209 
L 2766 2209 
L 2766 2266 
Q 2766 2663 2505 2880 
Q 2244 3097 1772 3097 
Q 1472 3097 1187 3025 
Q 903 2953 641 2809 
L 641 3341 
Q 956 3463 1253 3523 
Q 1550 3584 1831 3584 
Q 2591 3584 2966 3190 
Q 3341 2797 3341 1997 
z
" transform="scale(0.015625)"/>
        <path id="DejaVuSans-72" d="M 2631 2963 
Q 2534 3019 2420 3045 
Q 2306 3072 2169 3072 
Q 1681 3072 1420 2755 
Q 1159 2438 1159 1844 
L 1159 0 
L 581 0 
L 581 3500 
L 1159 3500 
L 1159 2956 
Q 1341 3275 1631 3429 
Q 1922 3584 2338 3584 
Q 2397 3584 2469 3576 
Q 2541 3569 2628 3553 
L 2631 2963 
z
" transform="scale(0.015625)"/>
       </defs>
       <use xlink:href="#DejaVuSans-4d"/>
       <use xlink:href="#DejaVuSans-61" x="86.279297"/>
       <use xlink:href="#DejaVuSans-72" x="147.558594"/>
      </g>
     </g>
    </g>
    <g id="xtick_3">
     <g id="line2d_3">
      <path d="M 83.840357 299.518125 
L 83.840357 22.318125 
" clip-path="url(#peae4f9c95b)" style="fill: none; stroke: #ffffff; stroke-linecap: round"/>
     </g>
     <g id="text_2">
      <!-- Apr -->
      <g style="fill: #262626" transform="translate(74.325357 317.376406) scale(0.11 -0.11)">
       <defs>
        <path id="DejaVuSans-41" d="M 2188 4044 
L 1331 1722 
L 3047 1722 
L 2188 4044 
z
M 1831 4666 
L 2547 4666 
L 4325 0 
L 3669 0 
L 3244 1197 
L 1141 1197 
L 716 0 
L 50 0 
L 1831 4666 
z
" transform="scale(0.015625)"/>
        <path id="DejaVuSans-70" d="M 1159 525 
L 1159 -1331 
L 581 -1331 
L 581 3500 
L 1159 3500 
L 1159 2969 
Q 1341 3281 1617 3432 
Q 1894 3584 2278 3584 
Q 2916 3584 3314 3078 
Q 3713 2572 3713 1747 
Q 3713 922 3314 415 
Q 2916 -91 2278 -91 
Q 1894 -91 1617 61 
Q 1341 213 1159 525 
z
M 3116 1747 
Q 3116 2381 2855 2742 
Q 2594 3103 2138 3103 
Q 1681 3103 1420 2742 
Q 1159 2381 1159 1747 
Q 1159 1113 1420 752 
Q 1681 391 2138 391 
Q 2594 391 2855 752 
Q 3116 1113 3116 1747 
z
" transform="scale(0.015625)"/>
       </defs>
       <use xlink:href="#DejaVuSans-41"/>
       <use xlink:href="#DejaVuSans-70" x="68.408203"/>
       <use xlink:href="#DejaVuSans-72" x="131.884766"/>
      </g>
     </g>
    </g>
    <g id="xtick_4">
     <g id="line2d_4">
      <path d="M 128.126071 299.518125 
L 128.126071 22.318125 
" clip-path="url(#peae4f9c95b)" style="fill: none; stroke: #ffffff; stroke-linecap: round"/>
     </g>
     <g id="text_3">
      <!-- May -->
      <g style="fill: #262626" transform="translate(116.754821 317.376406) scale(0.11 -0.11)">
       <defs>
        <path id="DejaVuSans-79" d="M 2059 -325 
Q 1816 -950 1584 -1140 
Q 1353 -1331 966 -1331 
L 506 -1331 
L 506 -850 
L 844 -850 
Q 1081 -850 1212 -737 
Q 1344 -625 1503 -206 
L 1606 56 
L 191 3500 
L 800 3500 
L 1894 763 
L 2988 3500 
L 3597 3500 
L 2059 -325 
z
" transform="scale(0.015625)"/>
       </defs>
       <use xlink:href="#DejaVuSans-4d"/>
       <use xlink:href="#DejaVuSans-61" x="86.279297"/>
       <use xlink:href="#DejaVuSans-79" x="147.558594"/>
      </g>
     </g>
    </g>
    <g id="xtick_5">
     <g id="line2d_5">
      <path d="M 173.887976 299.518125 
L 173.887976 22.318125 
" clip-path="url(#peae4f9c95b)" style="fill: none; stroke: #ffffff; stroke-linecap: round"/>
     </g>
     <g id="text_4">
      <!-- Jun -->
      <g style="fill: #262626" transform="translate(165.294226 317.376406) scale(0.11 -0.11)">
       <defs>
        <path id="DejaVuSans-4a" d="M 628 4666 
L 1259 4666 
L 1259 325 
Q 1259 -519 939 -900 
Q 619 -1281 -91 -1281 
L -331 -1281 
L -331 -750 
L -134 -750 
Q 284 -750 456 -515 
Q 628 -281 628 325 
L 628 4666 
z
" transform="scale(0.015625)"/>
        <path id="DejaVuSans-75" d="M 544 1381 
L 544 3500 
L 1119 3500 
L 1119 1403 
Q 1119 906 1312 657 
Q 1506 409 1894 409 
Q 2359 409 2629 706 
Q 2900 1003 2900 1516 
L 2900 3500 
L 3475 3500 
L 3475 0 
L 2900 0 
L 2900 538 
Q 2691 219 2414 64 
Q 2138 -91 1772 -91 
Q 1169 -91 856 284 
Q 544 659 544 1381 
z
M 1991 3584 
L 1991 3584 
z
" transform="scale(0.015625)"/>
        <path id="DejaVuSans-6e" d="M 3513 2113 
L 3513 0 
L 2938 0 
L 2938 2094 
Q 2938 2591 2744 2837 
Q 2550 3084 2163 3084 
Q 1697 3084 1428 2787 
Q 1159 2491 1159 1978 
L 1159 0 
L 581 0 
L 581 3500 
L 1159 3500 
L 1159 2956 
Q 1366 3272 1645 3428 
Q 1925 3584 2291 3584 
Q 2894 3584 3203 3211 
Q 3513 2838 3513 2113 
z
" transform="scale(0.015625)"/>
       </defs>
       <use xlink:href="#DejaVuSans-4a"/>
       <use xlink:href="#DejaVuSans-75" x="29.492188"/>
       <use xlink:href="#DejaVuSans-6e" x="92.871094"/>
      </g>
     </g>
    </g>
    <g id="xtick_6">
     <g id="line2d_6">
      <path d="M 218.17369 299.518125 
L 218.17369 22.318125 
" clip-path="url(#peae4f9c95b)" style="fill: none; stroke: #ffffff; stroke-linecap: round"/>
     </g>
     <g id="text_5">
      <!-- Jul -->
      <g style="fill: #262626" transform="translate(211.537597 317.376406) scale(0.11 -0.11)">
       <defs>
        <path id="DejaVuSans-6c" d="M 603 4863 
L 1178 4863 
L 1178 0 
L 603 0 
L 603 4863 
z
" transform="scale(0.015625)"/>
       </defs>
       <use xlink:href="#DejaVuSans-4a"/>
       <use xlink:href="#DejaVuSans-75" x="29.492188"/>
       <use xlink:href="#DejaVuSans-6c" x="92.871094"/>
      </g>
     </g>
    </g>
    <g id="xtick_7">
     <g id="line2d_7">
      <path d="M 263.935595 299.518125 
L 263.935595 22.318125 
" clip-path="url(#peae4f9c95b)" style="fill: none; stroke: #ffffff; stroke-linecap: round"/>
     </g>
     <g id="text_6">
      <!-- Aug -->
      <g style="fill: #262626" transform="translate(253.195986 317.376406) scale(0.11 -0.11)">
       <defs>
        <path id="DejaVuSans-67" d="M 2906 1791 
Q 2906 2416 2648 2759 
Q 2391 3103 1925 3103 
Q 1463 3103 1205 2759 
Q 947 2416 947 1791 
Q 947 1169 1205 825 
Q 1463 481 1925 481 
Q 2391 481 2648 825 
Q 2906 1169 2906 1791 
z
M 3481 434 
Q 3481 -459 3084 -895 
Q 2688 -1331 1869 -1331 
Q 1566 -1331 1297 -1286 
Q 1028 -1241 775 -1147 
L 775 -588 
Q 1028 -725 1275 -790 
Q 1522 -856 1778 -856 
Q 2344 -856 2625 -561 
Q 2906 -266 2906 331 
L 2906 616 
Q 2728 306 2450 153 
Q 2172 0 1784 0 
Q 1141 0 747 490 
Q 353 981 353 1791 
Q 353 2603 747 3093 
Q 1141 3584 1784 3584 
Q 2172 3584 2450 3431 
Q 2728 3278 2906 2969 
L 2906 3500 
L 3481 3500 
L 3481 434 
z
" transform="scale(0.015625)"/>
       </defs>
       <use xlink:href="#DejaVuSans-41"/>
       <use xlink:href="#DejaVuSans-75" x="68.408203"/>
       <use xlink:href="#DejaVuSans-67" x="131.787109"/>
      </g>
     </g>
    </g>
    <g id="xtick_8">
     <g id="line2d_8">
      <path d="M 309.6975 299.518125 
L 309.6975 22.318125 
" clip-path="url(#peae4f9c95b)" style="fill: none; stroke: #ffffff; stroke-linecap: round"/>
     </g>
     <g id="text_7">
      <!-- Sep -->
      <g style="fill: #262626" transform="translate(299.33 317.376406) scale(0.11 -0.11)">
       <defs>
        <path id="DejaVuSans-53" d="M 3425 4513 
L 3425 3897 
Q 3066 4069 2747 4153 
Q 2428 4238 2131 4238 
Q 1616 4238 1336 4038 
Q 1056 3838 1056 3469 
Q 1056 3159 1242 3001 
Q 1428 2844 1947 2747 
L 2328 2669 
Q 3034 2534 3370 2195 
Q 3706 1856 3706 1288 
Q 3706 609 3251 259 
Q 2797 -91 1919 -91 
Q 1588 -91 1214 -16 
Q 841 59 441 206 
L 441 856 
Q 825 641 1194 531 
Q 1563 422 1919 422 
Q 2459 422 2753 634 
Q 3047 847 3047 1241 
Q 3047 1584 2836 1778 
Q 2625 1972 2144 2069 
L 1759 2144 
Q 1053 2284 737 2584 
Q 422 2884 422 3419 
Q 422 4038 858 4394 
Q 1294 4750 2059 4750 
Q 2388 4750 2728 4690 
Q 3069 4631 3425 4513 
z
" transform="scale(0.015625)"/>
        <path id="DejaVuSans-65" d="M 3597 1894 
L 3597 1613 
L 953 1613 
Q 991 1019 1311 708 
Q 1631 397 2203 397 
Q 2534 397 2845 478 
Q 3156 559 3463 722 
L 3463 178 
Q 3153 47 2828 -22 
Q 2503 -91 2169 -91 
Q 1331 -91 842 396 
Q 353 884 353 1716 
Q 353 2575 817 3079 
Q 1281 3584 2069 3584 
Q 2775 3584 3186 3129 
Q 3597 2675 3597 1894 
z
M 3022 2063 
Q 3016 2534 2758 2815 
Q 2500 3097 2075 3097 
Q 1594 3097 1305 2825 
Q 1016 2553 972 2059 
L 3022 2063 
z
" transform="scale(0.015625)"/>
       </defs>
       <use xlink:href="#DejaVuSans-53"/>
       <use xlink:href="#DejaVuSans-65" x="63.476562"/>
       <use xlink:href="#DejaVuSans-70" x="125"/>
      </g>
     </g>
    </g>
    <g id="xtick_9">
     <g id="line2d_9">
      <path d="M 353.983214 299.518125 
L 353.983214 22.318125 
" clip-path="url(#peae4f9c95b)" style="fill: none; stroke: #ffffff; stroke-linecap: round"/>
     </g>
     <g id="text_8">
      <!-- Oct -->
      <g style="fill: #262626" transform="translate(344.473371 317.376406) scale(0.11 -0.11)">
       <defs>
        <path id="DejaVuSans-4f" d="M 2522 4238 
Q 1834 4238 1429 3725 
Q 1025 3213 1025 2328 
Q 1025 1447 1429 934 
Q 1834 422 2522 422 
Q 3209 422 3611 934 
Q 4013 1447 4013 2328 
Q 4013 3213 3611 3725 
Q 3209 4238 2522 4238 
z
M 2522 4750 
Q 3503 4750 4090 4092 
Q 4678 3434 4678 2328 
Q 4678 1225 4090 567 
Q 3503 -91 2522 -91 
Q 1538 -91 948 565 
Q 359 1222 359 2328 
Q 359 3434 948 4092 
Q 1538 4750 2522 4750 
z
" transform="scale(0.015625)"/>
        <path id="DejaVuSans-63" d="M 3122 3366 
L 3122 2828 
Q 2878 2963 2633 3030 
Q 2388 3097 2138 3097 
Q 1578 3097 1268 2742 
Q 959 2388 959 1747 
Q 959 1106 1268 751 
Q 1578 397 2138 397 
Q 2388 397 2633 464 
Q 2878 531 3122 666 
L 3122 134 
Q 2881 22 2623 -34 
Q 2366 -91 2075 -91 
Q 1284 -91 818 406 
Q 353 903 353 1747 
Q 353 2603 823 3093 
Q 1294 3584 2113 3584 
Q 2378 3584 2631 3529 
Q 2884 3475 3122 3366 
z
" transform="scale(0.015625)"/>
        <path id="DejaVuSans-74" d="M 1172 4494 
L 1172 3500 
L 2356 3500 
L 2356 3053 
L 1172 3053 
L 1172 1153 
Q 1172 725 1289 603 
Q 1406 481 1766 481 
L 2356 481 
L 2356 0 
L 1766 0 
Q 1100 0 847 248 
Q 594 497 594 1153 
L 594 3053 
L 172 3053 
L 172 3500 
L 594 3500 
L 594 4494 
L 1172 4494 
z
" transform="scale(0.015625)"/>
       </defs>
       <use xlink:href="#DejaVuSans-4f"/>
       <use xlink:href="#DejaVuSans-63" x="78.710938"/>
       <use xlink:href="#DejaVuSans-74" x="133.691406"/>
      </g>
     </g>
    </g>
    <g id="xtick_10">
     <g id="line2d_10">
      <path d="M 399.745119 299.518125 
L 399.745119 22.318125 
" clip-path="url(#peae4f9c95b)" style="fill: none; stroke: #ffffff; stroke-linecap: round"/>
     </g>
     <g id="text_9">
      <!-- Nov -->
      <g style="fill: #262626" transform="translate(389.009807 317.376406) scale(0.11 -0.11)">
       <defs>
        <path id="DejaVuSans-4e" d="M 628 4666 
L 1478 4666 
L 3547 763 
L 3547 4666 
L 4159 4666 
L 4159 0 
L 3309 0 
L 1241 3903 
L 1241 0 
L 628 0 
L 628 4666 
z
" transform="scale(0.015625)"/>
        <path id="DejaVuSans-6f" d="M 1959 3097 
Q 1497 3097 1228 2736 
Q 959 2375 959 1747 
Q 959 1119 1226 758 
Q 1494 397 1959 397 
Q 2419 397 2687 759 
Q 2956 1122 2956 1747 
Q 2956 2369 2687 2733 
Q 2419 3097 1959 3097 
z
M 1959 3584 
Q 2709 3584 3137 3096 
Q 3566 2609 3566 1747 
Q 3566 888 3137 398 
Q 2709 -91 1959 -91 
Q 1206 -91 779 398 
Q 353 888 353 1747 
Q 353 2609 779 3096 
Q 1206 3584 1959 3584 
z
" transform="scale(0.015625)"/>
        <path id="DejaVuSans-76" d="M 191 3500 
L 800 3500 
L 1894 563 
L 2988 3500 
L 3597 3500 
L 2284 0 
L 1503 0 
L 191 3500 
z
" transform="scale(0.015625)"/>
       </defs>
       <use xlink:href="#DejaVuSans-4e"/>
       <use xlink:href="#DejaVuSans-6f" x="74.804688"/>
       <use xlink:href="#DejaVuSans-76" x="135.986328"/>
      </g>
     </g>
    </g>
    <g id="xtick_11">
     <g id="line2d_11">
      <path d="M 444.030833 299.518125 
L 444.030833 22.318125 
" clip-path="url(#peae4f9c95b)" style="fill: none; stroke: #ffffff; stroke-linecap: round"/>
     </g>
     <g id="text_10">
      <!-- Dec -->
      <g style="fill: #262626" transform="translate(433.387474 317.376406) scale(0.11 -0.11)">
       <defs>
        <path id="DejaVuSans-44" d="M 1259 4147 
L 1259 519 
L 2022 519 
Q 2988 519 3436 956 
Q 3884 1394 3884 2338 
Q 3884 3275 3436 3711 
Q 2988 4147 2022 4147 
L 1259 4147 
z
M 628 4666 
L 1925 4666 
Q 3281 4666 3915 4102 
Q 4550 3538 4550 2338 
Q 4550 1131 3912 565 
Q 3275 0 1925 0 
L 628 0 
L 628 4666 
z
" transform="scale(0.015625)"/>
       </defs>
       <use xlink:href="#DejaVuSans-44"/>
       <use xlink:href="#DejaVuSans-65" x="77.001953"/>
       <use xlink:href="#DejaVuSans-63" x="138.525391"/>
      </g>
     </g>
    </g>
    <g id="xtick_12">
     <g id="line2d_12">
      <path d="M 489.792738 299.518125 
L 489.792738 22.318125 
" clip-path="url(#peae4f9c95b)" style="fill: none; stroke: #ffffff; stroke-linecap: round"/>
     </g>
     <g id="text_11">
      <!-- Jan -->
      <g style="fill: #262626" transform="translate(481.314144 317.376406) scale(0.11 -0.11)">
       <use xlink:href="#DejaVuSans-4a"/>
       <use xlink:href="#DejaVuSans-61" x="29.492188"/>
       <use xlink:href="#DejaVuSans-6e" x="90.771484"/>
      </g>
      <!-- 2023 -->
      <g style="fill: #262626" transform="translate(475.795238 329.694) scale(0.11 -0.11)">
       <defs>
        <path id="DejaVuSans-32" d="M 1228 531 
L 3431 531 
L 3431 0 
L 469 0 
L 469 531 
Q 828 903 1448 1529 
Q 2069 2156 2228 2338 
Q 2531 2678 2651 2914 
Q 2772 3150 2772 3378 
Q 2772 3750 2511 3984 
Q 2250 4219 1831 4219 
Q 1534 4219 1204 4116 
Q 875 4013 500 3803 
L 500 4441 
Q 881 4594 1212 4672 
Q 1544 4750 1819 4750 
Q 2544 4750 2975 4387 
Q 3406 4025 3406 3419 
Q 3406 3131 3298 2873 
Q 3191 2616 2906 2266 
Q 2828 2175 2409 1742 
Q 1991 1309 1228 531 
z
" transform="scale(0.015625)"/>
        <path id="DejaVuSans-30" d="M 2034 4250 
Q 1547 4250 1301 3770 
Q 1056 3291 1056 2328 
Q 1056 1369 1301 889 
Q 1547 409 2034 409 
Q 2525 409 2770 889 
Q 3016 1369 3016 2328 
Q 3016 3291 2770 3770 
Q 2525 4250 2034 4250 
z
M 2034 4750 
Q 2819 4750 3233 4129 
Q 3647 3509 3647 2328 
Q 3647 1150 3233 529 
Q 2819 -91 2034 -91 
Q 1250 -91 836 529 
Q 422 1150 422 2328 
Q 422 3509 836 4129 
Q 1250 4750 2034 4750 
z
" transform="scale(0.015625)"/>
        <path id="DejaVuSans-33" d="M 2597 2516 
Q 3050 2419 3304 2112 
Q 3559 1806 3559 1356 
Q 3559 666 3084 287 
Q 2609 -91 1734 -91 
Q 1441 -91 1130 -33 
Q 819 25 488 141 
L 488 750 
Q 750 597 1062 519 
Q 1375 441 1716 441 
Q 2309 441 2620 675 
Q 2931 909 2931 1356 
Q 2931 1769 2642 2001 
Q 2353 2234 1838 2234 
L 1294 2234 
L 1294 2753 
L 1863 2753 
Q 2328 2753 2575 2939 
Q 2822 3125 2822 3475 
Q 2822 3834 2567 4026 
Q 2313 4219 1838 4219 
Q 1578 4219 1281 4162 
Q 984 4106 628 3988 
L 628 4550 
Q 988 4650 1302 4700 
Q 1616 4750 1894 4750 
Q 2613 4750 3031 4423 
Q 3450 4097 3450 3541 
Q 3450 3153 3228 2886 
Q 3006 2619 2597 2516 
z
" transform="scale(0.015625)"/>
       </defs>
       <use xlink:href="#DejaVuSans-32"/>
       <use xlink:href="#DejaVuSans-30" x="63.623047"/>
       <use xlink:href="#DejaVuSans-32" x="127.246094"/>
       <use xlink:href="#DejaVuSans-33" x="190.869141"/>
      </g>
     </g>
    </g>
    <g id="xtick_13">
     <g id="line2d_13">
      <path d="M 535.554643 299.518125 
L 535.554643 22.318125 
" clip-path="url(#peae4f9c95b)" style="fill: none; stroke: #ffffff; stroke-linecap: round"/>
     </g>
     <g id="text_12">
      <!-- Feb -->
      <g style="fill: #262626" transform="translate(525.817924 317.376406) scale(0.11 -0.11)">
       <defs>
        <path id="DejaVuSans-46" d="M 628 4666 
L 3309 4666 
L 3309 4134 
L 1259 4134 
L 1259 2759 
L 3109 2759 
L 3109 2228 
L 1259 2228 
L 1259 0 
L 628 0 
L 628 4666 
z
" transform="scale(0.015625)"/>
        <path id="DejaVuSans-62" d="M 3116 1747 
Q 3116 2381 2855 2742 
Q 2594 3103 2138 3103 
Q 1681 3103 1420 2742 
Q 1159 2381 1159 1747 
Q 1159 1113 1420 752 
Q 1681 391 2138 391 
Q 2594 391 2855 752 
Q 3116 1113 3116 1747 
z
M 1159 2969 
Q 1341 3281 1617 3432 
Q 1894 3584 2278 3584 
Q 2916 3584 3314 3078 
Q 3713 2572 3713 1747 
Q 3713 922 3314 415 
Q 2916 -91 2278 -91 
Q 1894 -91 1617 61 
Q 1341 213 1159 525 
L 1159 0 
L 581 0 
L 581 4863 
L 1159 4863 
L 1159 2969 
z
" transform="scale(0.015625)"/>
       </defs>
       <use xlink:href="#DejaVuSans-46"/>
       <use xlink:href="#DejaVuSans-65" x="52.019531"/>
       <use xlink:href="#DejaVuSans-62" x="113.542969"/>
      </g>
     </g>
    </g>
    <g id="xtick_14">
     <g id="line2d_14">
      <path d="M 576.887976 299.518125 
L 576.887976 22.318125 
" clip-path="url(#peae4f9c95b)" style="fill: none; stroke: #ffffff; stroke-linecap: round"/>
     </g>
     <g id="text_13">
      <!-- Mar -->
      <g style="fill: #262626" transform="translate(566.511023 317.376406) scale(0.11 -0.11)">
       <use xlink:href="#DejaVuSans-4d"/>
       <use xlink:href="#DejaVuSans-61" x="86.279297"/>
       <use xlink:href="#DejaVuSans-72" x="147.558594"/>
      </g>
     </g>
    </g>
    <g id="xtick_15">
     <g id="line2d_15">
      <path d="M 588.6975 299.518125 
L 588.6975 22.318125 
" clip-path="url(#peae4f9c95b)" style="fill: none; stroke: #ffffff; stroke-linecap: round"/>
     </g>
    </g>
    <g id="xtick_16"/>
    <g id="xtick_17"/>
    <g id="xtick_18"/>
    <g id="xtick_19"/>
    <g id="xtick_20"/>
    <g id="xtick_21"/>
    <g id="xtick_22"/>
    <g id="xtick_23"/>
    <g id="xtick_24"/>
    <g id="xtick_25"/>
    <g id="xtick_26"/>
    <g id="xtick_27"/>
    <g id="xtick_28"/>
    <g id="xtick_29"/>
    <g id="xtick_30"/>
    <g id="xtick_31"/>
    <g id="xtick_32"/>
    <g id="xtick_33"/>
    <g id="xtick_34"/>
    <g id="xtick_35"/>
    <g id="xtick_36"/>
    <g id="xtick_37"/>
    <g id="xtick_38"/>
    <g id="xtick_39"/>
    <g id="xtick_40"/>
    <g id="xtick_41"/>
    <g id="xtick_42"/>
    <g id="xtick_43"/>
    <g id="xtick_44"/>
    <g id="xtick_45"/>
    <g id="xtick_46"/>
    <g id="xtick_47"/>
    <g id="xtick_48"/>
    <g id="xtick_49"/>
    <g id="xtick_50"/>
    <g id="xtick_51"/>
    <g id="xtick_52"/>
    <g id="xtick_53"/>
    <g id="xtick_54"/>
    <g id="xtick_55"/>
    <g id="xtick_56"/>
    <g id="xtick_57"/>
    <g id="xtick_58"/>
    <g id="xtick_59"/>
    <g id="xtick_60"/>
    <g id="xtick_61"/>
    <g id="xtick_62"/>
    <g id="xtick_63"/>
    <g id="xtick_64"/>
    <g id="xtick_65"/>
    <g id="xtick_66"/>
    <g id="xtick_67"/>
    <g id="xtick_68"/>
    <g id="text_14">
     <!-- date -->
     <g style="fill: #262626" transform="translate(296.1675 345.099781) scale(0.12 -0.12)">
      <defs>
       <path id="DejaVuSans-64" d="M 2906 2969 
L 2906 4863 
L 3481 4863 
L 3481 0 
L 2906 0 
L 2906 525 
Q 2725 213 2448 61 
Q 2172 -91 1784 -91 
Q 1150 -91 751 415 
Q 353 922 353 1747 
Q 353 2572 751 3078 
Q 1150 3584 1784 3584 
Q 2172 3584 2448 3432 
Q 2725 3281 2906 2969 
z
M 947 1747 
Q 947 1113 1208 752 
Q 1469 391 1925 391 
Q 2381 391 2643 752 
Q 2906 1113 2906 1747 
Q 2906 2381 2643 2742 
Q 2381 3103 1925 3103 
Q 1469 3103 1208 2742 
Q 947 2381 947 1747 
z
" transform="scale(0.015625)"/>
      </defs>
      <use xlink:href="#DejaVuSans-64"/>
      <use xlink:href="#DejaVuSans-61" x="63.476562"/>
      <use xlink:href="#DejaVuSans-74" x="124.755859"/>
      <use xlink:href="#DejaVuSans-65" x="163.964844"/>
     </g>
    </g>
   </g>
   <g id="matplotlib.axis_2">
    <g id="ytick_1">
     <g id="line2d_16">
      <path d="M 30.6975 286.918125 
L 588.6975 286.918125 
" clip-path="url(#peae4f9c95b)" style="fill: none; stroke: #ffffff; stroke-linecap: round"/>
     </g>
     <g id="text_15">
      <!-- 0 -->
      <g style="fill: #262626" transform="translate(14.19875 291.097266) scale(0.11 -0.11)">
       <use xlink:href="#DejaVuSans-30"/>
      </g>
     </g>
    </g>
    <g id="ytick_2">
     <g id="line2d_17">
      <path d="M 30.6975 242.707599 
L 588.6975 242.707599 
" clip-path="url(#peae4f9c95b)" style="fill: none; stroke: #ffffff; stroke-linecap: round"/>
     </g>
     <g id="text_16">
      <!-- 10 -->
      <g style="fill: #262626" transform="translate(7.2 246.886739) scale(0.11 -0.11)">
       <defs>
        <path id="DejaVuSans-31" d="M 794 531 
L 1825 531 
L 1825 4091 
L 703 3866 
L 703 4441 
L 1819 4666 
L 2450 4666 
L 2450 531 
L 3481 531 
L 3481 0 
L 794 0 
L 794 531 
z
" transform="scale(0.015625)"/>
       </defs>
       <use xlink:href="#DejaVuSans-31"/>
       <use xlink:href="#DejaVuSans-30" x="63.623047"/>
      </g>
     </g>
    </g>
    <g id="ytick_3">
     <g id="line2d_18">
      <path d="M 30.6975 198.497072 
L 588.6975 198.497072 
" clip-path="url(#peae4f9c95b)" style="fill: none; stroke: #ffffff; stroke-linecap: round"/>
     </g>
     <g id="text_17">
      <!-- 20 -->
      <g style="fill: #262626" transform="translate(7.2 202.676213) scale(0.11 -0.11)">
       <use xlink:href="#DejaVuSans-32"/>
       <use xlink:href="#DejaVuSans-30" x="63.623047"/>
      </g>
     </g>
    </g>
    <g id="ytick_4">
     <g id="line2d_19">
      <path d="M 30.6975 154.286546 
L 588.6975 154.286546 
" clip-path="url(#peae4f9c95b)" style="fill: none; stroke: #ffffff; stroke-linecap: round"/>
     </g>
     <g id="text_18">
      <!-- 30 -->
      <g style="fill: #262626" transform="translate(7.2 158.465687) scale(0.11 -0.11)">
       <use xlink:href="#DejaVuSans-33"/>
       <use xlink:href="#DejaVuSans-30" x="63.623047"/>
      </g>
     </g>
    </g>
    <g id="ytick_5">
     <g id="line2d_20">
      <path d="M 30.6975 110.07602 
L 588.6975 110.07602 
" clip-path="url(#peae4f9c95b)" style="fill: none; stroke: #ffffff; stroke-linecap: round"/>
     </g>
     <g id="text_19">
      <!-- 40 -->
      <g style="fill: #262626" transform="translate(7.2 114.25516) scale(0.11 -0.11)">
       <defs>
        <path id="DejaVuSans-34" d="M 2419 4116 
L 825 1625 
L 2419 1625 
L 2419 4116 
z
M 2253 4666 
L 3047 4666 
L 3047 1625 
L 3713 1625 
L 3713 1100 
L 3047 1100 
L 3047 0 
L 2419 0 
L 2419 1100 
L 313 1100 
L 313 1709 
L 2253 4666 
z
" transform="scale(0.015625)"/>
       </defs>
       <use xlink:href="#DejaVuSans-34"/>
       <use xlink:href="#DejaVuSans-30" x="63.623047"/>
      </g>
     </g>
    </g>
    <g id="ytick_6">
     <g id="line2d_21">
      <path d="M 30.6975 65.865493 
L 588.6975 65.865493 
" clip-path="url(#peae4f9c95b)" style="fill: none; stroke: #ffffff; stroke-linecap: round"/>
     </g>
     <g id="text_20">
      <!-- 50 -->
      <g style="fill: #262626" transform="translate(7.2 70.044634) scale(0.11 -0.11)">
       <defs>
        <path id="DejaVuSans-35" d="M 691 4666 
L 3169 4666 
L 3169 4134 
L 1269 4134 
L 1269 2991 
Q 1406 3038 1543 3061 
Q 1681 3084 1819 3084 
Q 2600 3084 3056 2656 
Q 3513 2228 3513 1497 
Q 3513 744 3044 326 
Q 2575 -91 1722 -91 
Q 1428 -91 1123 -41 
Q 819 9 494 109 
L 494 744 
Q 775 591 1075 516 
Q 1375 441 1709 441 
Q 2250 441 2565 725 
Q 2881 1009 2881 1497 
Q 2881 1984 2565 2268 
Q 2250 2553 1709 2553 
Q 1456 2553 1204 2497 
Q 953 2441 691 2322 
L 691 4666 
z
" transform="scale(0.015625)"/>
       </defs>
       <use xlink:href="#DejaVuSans-35"/>
       <use xlink:href="#DejaVuSans-30" x="63.623047"/>
      </g>
     </g>
    </g>
   </g>
   <g id="line2d_22">
    <path d="M 30.6975 154.286546 
L 32.17369 247.128651 
L 33.649881 260.391809 
L 35.126071 251.549704 
L 36.602262 225.023388 
L 38.078452 233.865493 
L 39.554643 255.970757 
L 41.030833 269.233914 
L 42.507024 278.07602 
L 43.983214 264.812862 
L 45.459405 255.970757 
L 46.935595 255.970757 
L 48.411786 260.391809 
L 51.364167 278.07602 
L 52.840357 273.654967 
L 54.316548 255.970757 
L 55.792738 260.391809 
L 57.268929 260.391809 
L 58.745119 264.812862 
L 60.22131 255.970757 
L 61.6975 269.233914 
L 63.17369 225.023388 
L 64.649881 278.07602 
L 66.126071 269.233914 
L 67.602262 282.497072 
L 69.078452 260.391809 
L 70.554643 273.654967 
L 72.030833 282.497072 
L 73.507024 247.128651 
L 74.983214 273.654967 
L 76.459405 269.233914 
L 77.935595 278.07602 
L 79.411786 273.654967 
L 80.887976 260.391809 
L 82.364167 264.812862 
L 83.840357 278.07602 
L 85.316548 255.970757 
L 86.792738 269.233914 
L 88.268929 251.549704 
L 89.745119 264.812862 
L 91.22131 260.391809 
L 92.6975 282.497072 
L 94.17369 260.391809 
L 95.649881 264.812862 
L 97.126071 202.918125 
L 98.602262 269.233914 
L 100.078452 255.970757 
L 101.554643 229.444441 
L 103.030833 278.07602 
L 104.507024 242.707599 
L 105.983214 255.970757 
L 107.459405 229.444441 
L 108.935595 251.549704 
L 110.411786 194.07602 
L 111.887976 278.07602 
L 113.364167 286.918125 
L 114.840357 264.812862 
L 116.316548 216.181283 
L 117.792738 278.07602 
L 119.268929 233.865493 
L 120.745119 238.286546 
L 122.22131 260.391809 
L 125.17369 260.391809 
L 126.649881 278.07602 
L 128.126071 211.76023 
L 129.602262 264.812862 
L 131.078452 198.497072 
L 132.554643 260.391809 
L 134.030833 278.07602 
L 135.507024 264.812862 
L 136.983214 264.812862 
L 138.459405 273.654967 
L 139.935595 269.233914 
L 141.411786 255.970757 
L 144.364167 264.812862 
L 145.840357 255.970757 
L 147.316548 269.233914 
L 148.792738 278.07602 
L 150.268929 198.497072 
L 151.745119 238.286546 
L 153.22131 269.233914 
L 154.6975 273.654967 
L 156.17369 255.970757 
L 157.649881 255.970757 
L 159.126071 269.233914 
L 160.602262 255.970757 
L 162.078452 207.339178 
L 163.554643 273.654967 
L 166.507024 282.497072 
L 167.983214 273.654967 
L 169.459405 260.391809 
L 170.935595 211.76023 
L 172.411786 269.233914 
L 173.887976 260.391809 
L 175.364167 286.918125 
L 178.316548 269.233914 
L 179.792738 273.654967 
L 181.268929 233.865493 
L 182.745119 225.023388 
L 185.6975 269.233914 
L 187.17369 282.497072 
L 188.649881 273.654967 
L 190.126071 273.654967 
L 191.602262 207.339178 
L 193.078452 238.286546 
L 194.554643 247.128651 
L 196.030833 282.497072 
L 197.507024 278.07602 
L 198.983214 260.391809 
L 200.459405 264.812862 
L 201.935595 176.391809 
L 203.411786 229.444441 
L 204.887976 251.549704 
L 206.364167 286.918125 
L 207.840357 286.918125 
L 209.316548 255.970757 
L 210.792738 255.970757 
L 212.268929 220.602336 
L 213.745119 123.339178 
L 215.22131 247.128651 
L 216.6975 282.497072 
L 218.17369 273.654967 
L 219.649881 269.233914 
L 221.126071 282.497072 
L 222.602262 278.07602 
L 224.078452 118.918125 
L 225.554643 247.128651 
L 227.030833 282.497072 
L 228.507024 278.07602 
L 229.983214 264.812862 
L 231.459405 282.497072 
L 232.935595 202.918125 
L 234.411786 238.286546 
L 235.887976 251.549704 
L 237.364167 269.233914 
L 238.840357 278.07602 
L 240.316548 255.970757 
L 241.792738 278.07602 
L 243.268929 278.07602 
L 244.745119 242.707599 
L 246.22131 264.812862 
L 247.6975 278.07602 
L 249.17369 282.497072 
L 250.649881 273.654967 
L 252.126071 286.918125 
L 253.602262 273.654967 
L 255.078452 282.497072 
L 256.554643 269.233914 
L 258.030833 269.233914 
L 259.507024 278.07602 
L 260.983214 282.497072 
L 262.459405 273.654967 
L 263.935595 260.391809 
L 265.411786 273.654967 
L 266.887976 273.654967 
L 268.364167 282.497072 
L 269.840357 278.07602 
L 271.316548 282.497072 
L 272.792738 278.07602 
L 275.745119 286.918125 
L 277.22131 282.497072 
L 278.6975 273.654967 
L 280.17369 282.497072 
L 281.649881 286.918125 
L 283.126071 286.918125 
L 284.602262 251.549704 
L 286.078452 269.233914 
L 287.554643 273.654967 
L 289.030833 273.654967 
L 290.507024 286.918125 
L 291.983214 278.07602 
L 293.459405 282.497072 
L 294.935595 233.865493 
L 296.411786 202.918125 
L 297.887976 247.128651 
L 299.364167 278.07602 
L 300.840357 286.918125 
L 302.316548 269.233914 
L 303.792738 273.654967 
L 308.22131 273.654967 
L 309.6975 286.918125 
L 311.17369 286.918125 
L 312.649881 278.07602 
L 314.126071 273.654967 
L 315.602262 273.654967 
L 317.078452 269.233914 
L 318.554643 273.654967 
L 320.030833 269.233914 
L 321.507024 286.918125 
L 322.983214 278.07602 
L 324.459405 278.07602 
L 325.935595 211.76023 
L 327.411786 202.918125 
L 328.887976 264.812862 
L 330.364167 269.233914 
L 331.840357 278.07602 
L 334.792738 286.918125 
L 336.268929 251.549704 
L 337.745119 251.549704 
L 339.22131 269.233914 
L 340.6975 282.497072 
L 342.17369 286.918125 
L 343.649881 282.497072 
L 346.602262 282.497072 
L 348.078452 278.07602 
L 349.554643 260.391809 
L 351.030833 282.497072 
L 352.507024 278.07602 
L 353.983214 286.918125 
L 355.459405 286.918125 
L 356.935595 255.970757 
L 358.411786 282.497072 
L 359.887976 269.233914 
L 361.364167 282.497072 
L 362.840357 286.918125 
L 365.792738 286.918125 
L 367.268929 176.391809 
L 368.745119 282.497072 
L 370.22131 278.07602 
L 371.6975 282.497072 
L 373.17369 269.233914 
L 374.649881 278.07602 
L 376.126071 278.07602 
L 377.602262 247.128651 
L 379.078452 273.654967 
L 380.554643 264.812862 
L 382.030833 282.497072 
L 383.507024 286.918125 
L 384.983214 242.707599 
L 386.459405 282.497072 
L 387.935595 273.654967 
L 389.411786 286.918125 
L 392.364167 278.07602 
L 393.840357 282.497072 
L 396.792738 273.654967 
L 398.268929 247.128651 
L 399.745119 273.654967 
L 401.22131 278.07602 
L 402.6975 269.233914 
L 404.17369 282.497072 
L 405.649881 286.918125 
L 407.126071 282.497072 
L 408.602262 273.654967 
L 411.554643 273.654967 
L 413.030833 286.918125 
L 414.507024 278.07602 
L 415.983214 286.918125 
L 417.459405 282.497072 
L 418.935595 269.233914 
L 420.411786 216.181283 
L 421.887976 278.07602 
L 423.364167 282.497072 
L 424.840357 273.654967 
L 426.316548 269.233914 
L 430.745119 282.497072 
L 432.22131 238.286546 
L 433.6975 286.918125 
L 435.17369 282.497072 
L 436.649881 282.497072 
L 439.602262 273.654967 
L 444.030833 286.918125 
L 445.507024 269.233914 
L 446.983214 278.07602 
L 448.459405 282.497072 
L 449.935595 247.128651 
L 451.411786 282.497072 
L 454.364167 264.812862 
L 455.840357 286.918125 
L 457.316548 286.918125 
L 458.792738 282.497072 
L 460.268929 260.391809 
L 463.22131 286.918125 
L 464.6975 273.654967 
L 466.17369 282.497072 
L 467.649881 273.654967 
L 469.126071 286.918125 
L 470.602262 286.918125 
L 472.078452 273.654967 
L 473.554643 273.654967 
L 475.030833 282.497072 
L 476.507024 286.918125 
L 477.983214 264.812862 
L 479.459405 278.07602 
L 480.935595 273.654967 
L 482.411786 286.918125 
L 483.887976 282.497072 
L 485.364167 242.707599 
L 486.840357 286.918125 
L 488.316548 255.970757 
L 489.792738 286.918125 
L 491.268929 286.918125 
L 492.745119 273.654967 
L 494.22131 269.233914 
L 495.6975 286.918125 
L 497.17369 286.918125 
L 498.649881 278.07602 
L 500.126071 286.918125 
L 501.602262 269.233914 
L 503.078452 273.654967 
L 504.554643 286.918125 
L 507.507024 286.918125 
L 508.983214 242.707599 
L 510.459405 286.918125 
L 511.935595 278.07602 
L 513.411786 278.07602 
L 514.887976 286.918125 
L 516.364167 282.497072 
L 517.840357 286.918125 
L 519.316548 286.918125 
L 520.792738 278.07602 
L 522.268929 273.654967 
L 523.745119 282.497072 
L 526.6975 273.654967 
L 528.17369 286.918125 
L 529.649881 273.654967 
L 531.126071 282.497072 
L 532.602262 286.918125 
L 534.078452 278.07602 
L 535.554643 273.654967 
L 538.507024 282.497072 
L 539.983214 282.497072 
L 541.459405 273.654967 
L 542.935595 286.918125 
L 544.411786 282.497072 
L 545.887976 264.812862 
L 547.364167 273.654967 
L 548.840357 264.812862 
L 550.316548 282.497072 
L 551.792738 278.07602 
L 553.268929 286.918125 
L 554.745119 282.497072 
L 557.6975 282.497072 
L 559.17369 286.918125 
L 563.602262 273.654967 
L 565.078452 286.918125 
L 566.554643 273.654967 
L 568.030833 286.918125 
L 570.983214 278.07602 
L 572.459405 286.918125 
L 573.935595 278.07602 
L 575.411786 286.918125 
L 576.887976 278.07602 
L 579.840357 286.918125 
L 581.316548 282.497072 
L 582.792738 286.918125 
L 584.268929 286.918125 
L 587.22131 278.07602 
L 588.6975 247.128651 
L 588.6975 247.128651 
" clip-path="url(#peae4f9c95b)" style="fill: none; stroke: #4c72b0; stroke-width: 1.5; stroke-linecap: round"/>
   </g>
   <g id="line2d_23">
    <path d="M 30.6975 247.128651 
L 35.126071 225.023388 
L 39.554643 207.339178 
L 43.983214 255.970757 
L 48.411786 202.918125 
L 52.840357 171.970757 
L 57.268929 216.181283 
L 61.6975 264.812862 
L 66.126071 273.654967 
L 70.554643 251.549704 
L 74.983214 260.391809 
L 79.411786 189.654967 
L 83.840357 255.970757 
L 88.268929 269.233914 
L 92.6975 242.707599 
L 97.126071 255.970757 
L 101.554643 273.654967 
L 105.983214 264.812862 
L 110.411786 273.654967 
L 114.840357 194.07602 
L 119.268929 282.497072 
L 123.6975 238.286546 
L 128.126071 189.654967 
L 132.554643 255.970757 
L 136.983214 225.023388 
L 141.411786 242.707599 
L 145.840357 242.707599 
L 150.268929 194.07602 
L 154.6975 194.07602 
L 159.126071 198.497072 
L 163.554643 202.918125 
L 167.983214 202.918125 
L 172.411786 154.286546 
L 176.840357 118.918125 
L 181.268929 220.602336 
L 185.6975 238.286546 
L 190.126071 216.181283 
L 194.554643 207.339178 
L 198.983214 198.497072 
L 203.411786 149.865493 
L 207.840357 185.233914 
L 212.268929 180.812862 
L 216.6975 202.918125 
L 221.126071 158.707599 
L 225.554643 136.602336 
L 229.983214 101.233914 
L 234.411786 141.023388 
L 238.840357 87.970757 
L 243.268929 92.391809 
L 247.6975 158.707599 
L 252.126071 167.549704 
L 256.554643 158.707599 
L 260.983214 61.444441 
L 265.411786 136.602336 
L 269.840357 105.654967 
L 274.268929 74.707599 
L 278.6975 79.128651 
L 283.126071 79.128651 
L 287.554643 65.865493 
L 291.983214 79.128651 
L 296.411786 34.918125 
L 300.840357 141.023388 
L 305.268929 123.339178 
L 309.6975 180.812862 
L 314.126071 61.444441 
L 318.554643 154.286546 
L 322.983214 127.76023 
L 327.411786 207.339178 
L 331.840357 118.918125 
L 336.268929 255.970757 
L 340.6975 158.707599 
L 345.126071 70.286546 
L 349.554643 242.707599 
L 353.983214 163.128651 
L 358.411786 255.970757 
L 362.840357 87.970757 
L 367.268929 238.286546 
L 371.6975 185.233914 
L 376.126071 202.918125 
L 380.554643 260.391809 
L 384.983214 273.654967 
L 389.411786 207.339178 
L 393.840357 229.444441 
L 398.268929 242.707599 
L 402.6975 242.707599 
L 407.126071 255.970757 
L 411.554643 233.865493 
L 415.983214 255.970757 
L 420.411786 247.128651 
L 424.840357 278.07602 
L 429.268929 251.549704 
L 433.6975 233.865493 
L 438.126071 251.549704 
L 442.554643 238.286546 
L 446.983214 251.549704 
L 451.411786 202.918125 
L 455.840357 269.233914 
L 460.268929 269.233914 
L 464.6975 282.497072 
L 469.126071 180.812862 
L 473.554643 260.391809 
L 477.983214 286.918125 
L 482.411786 238.286546 
L 486.840357 286.918125 
L 491.268929 273.654967 
L 495.6975 264.812862 
L 500.126071 273.654967 
L 504.554643 286.918125 
L 508.983214 251.549704 
L 513.411786 282.497072 
L 517.840357 273.654967 
L 522.268929 269.233914 
L 526.6975 273.654967 
L 531.126071 264.812862 
L 535.554643 282.497072 
L 539.983214 273.654967 
L 544.411786 194.07602 
L 548.840357 207.339178 
L 553.268929 225.023388 
L 557.6975 242.707599 
L 562.126071 242.707599 
L 566.554643 233.865493 
L 570.983214 225.023388 
L 575.411786 238.286546 
L 579.840357 264.812862 
L 584.268929 286.918125 
L 588.6975 264.812862 
" clip-path="url(#peae4f9c95b)" style="fill: none; stroke: #dd8452; stroke-width: 1.5; stroke-linecap: round"/>
   </g>
   <g id="patch_3">
    <path d="M 30.6975 299.518125 
L 30.6975 22.318125 
" style="fill: none; stroke: #ffffff; stroke-width: 1.25; stroke-linejoin: miter; stroke-linecap: square"/>
   </g>
   <g id="patch_4">
    <path d="M 588.6975 299.518125 
L 588.6975 22.318125 
" style="fill: none; stroke: #ffffff; stroke-width: 1.25; stroke-linejoin: miter; stroke-linecap: square"/>
   </g>
   <g id="patch_5">
    <path d="M 30.6975 299.518125 
L 588.6975 299.518125 
" style="fill: none; stroke: #ffffff; stroke-width: 1.25; stroke-linejoin: miter; stroke-linecap: square"/>
   </g>
   <g id="patch_6">
    <path d="M 30.6975 22.318125 
L 588.6975 22.318125 
" style="fill: none; stroke: #ffffff; stroke-width: 1.25; stroke-linejoin: miter; stroke-linecap: square"/>
   </g>
   <g id="text_21">
    <!-- Total air strikes vs missile all missile events -->
    <g style="fill: #262626" transform="translate(179.3625 16.318125) scale(0.12 -0.12)">
     <defs>
      <path id="DejaVuSans-54" d="M -19 4666 
L 3928 4666 
L 3928 4134 
L 2272 4134 
L 2272 0 
L 1638 0 
L 1638 4134 
L -19 4134 
L -19 4666 
z
" transform="scale(0.015625)"/>
      <path id="DejaVuSans-20" transform="scale(0.015625)"/>
      <path id="DejaVuSans-69" d="M 603 3500 
L 1178 3500 
L 1178 0 
L 603 0 
L 603 3500 
z
M 603 4863 
L 1178 4863 
L 1178 4134 
L 603 4134 
L 603 4863 
z
" transform="scale(0.015625)"/>
      <path id="DejaVuSans-73" d="M 2834 3397 
L 2834 2853 
Q 2591 2978 2328 3040 
Q 2066 3103 1784 3103 
Q 1356 3103 1142 2972 
Q 928 2841 928 2578 
Q 928 2378 1081 2264 
Q 1234 2150 1697 2047 
L 1894 2003 
Q 2506 1872 2764 1633 
Q 3022 1394 3022 966 
Q 3022 478 2636 193 
Q 2250 -91 1575 -91 
Q 1294 -91 989 -36 
Q 684 19 347 128 
L 347 722 
Q 666 556 975 473 
Q 1284 391 1588 391 
Q 1994 391 2212 530 
Q 2431 669 2431 922 
Q 2431 1156 2273 1281 
Q 2116 1406 1581 1522 
L 1381 1569 
Q 847 1681 609 1914 
Q 372 2147 372 2553 
Q 372 3047 722 3315 
Q 1072 3584 1716 3584 
Q 2034 3584 2315 3537 
Q 2597 3491 2834 3397 
z
" transform="scale(0.015625)"/>
      <path id="DejaVuSans-6b" d="M 581 4863 
L 1159 4863 
L 1159 1991 
L 2875 3500 
L 3609 3500 
L 1753 1863 
L 3688 0 
L 2938 0 
L 1159 1709 
L 1159 0 
L 581 0 
L 581 4863 
z
" transform="scale(0.015625)"/>
      <path id="DejaVuSans-6d" d="M 3328 2828 
Q 3544 3216 3844 3400 
Q 4144 3584 4550 3584 
Q 5097 3584 5394 3201 
Q 5691 2819 5691 2113 
L 5691 0 
L 5113 0 
L 5113 2094 
Q 5113 2597 4934 2840 
Q 4756 3084 4391 3084 
Q 3944 3084 3684 2787 
Q 3425 2491 3425 1978 
L 3425 0 
L 2847 0 
L 2847 2094 
Q 2847 2600 2669 2842 
Q 2491 3084 2119 3084 
Q 1678 3084 1418 2786 
Q 1159 2488 1159 1978 
L 1159 0 
L 581 0 
L 581 3500 
L 1159 3500 
L 1159 2956 
Q 1356 3278 1631 3431 
Q 1906 3584 2284 3584 
Q 2666 3584 2933 3390 
Q 3200 3197 3328 2828 
z
" transform="scale(0.015625)"/>
     </defs>
     <use xlink:href="#DejaVuSans-54"/>
     <use xlink:href="#DejaVuSans-6f" x="44.083984"/>
     <use xlink:href="#DejaVuSans-74" x="105.265625"/>
     <use xlink:href="#DejaVuSans-61" x="144.474609"/>
     <use xlink:href="#DejaVuSans-6c" x="205.753906"/>
     <use xlink:href="#DejaVuSans-20" x="233.537109"/>
     <use xlink:href="#DejaVuSans-61" x="265.324219"/>
     <use xlink:href="#DejaVuSans-69" x="326.603516"/>
     <use xlink:href="#DejaVuSans-72" x="354.386719"/>
     <use xlink:href="#DejaVuSans-20" x="395.5"/>
     <use xlink:href="#DejaVuSans-73" x="427.287109"/>
     <use xlink:href="#DejaVuSans-74" x="479.386719"/>
     <use xlink:href="#DejaVuSans-72" x="518.595703"/>
     <use xlink:href="#DejaVuSans-69" x="559.708984"/>
     <use xlink:href="#DejaVuSans-6b" x="587.492188"/>
     <use xlink:href="#DejaVuSans-65" x="641.777344"/>
     <use xlink:href="#DejaVuSans-73" x="703.300781"/>
     <use xlink:href="#DejaVuSans-20" x="755.400391"/>
     <use xlink:href="#DejaVuSans-76" x="787.1875"/>
     <use xlink:href="#DejaVuSans-73" x="846.367188"/>
     <use xlink:href="#DejaVuSans-20" x="898.466797"/>
     <use xlink:href="#DejaVuSans-6d" x="930.253906"/>
     <use xlink:href="#DejaVuSans-69" x="1027.666016"/>
     <use xlink:href="#DejaVuSans-73" x="1055.449219"/>
     <use xlink:href="#DejaVuSans-73" x="1107.548828"/>
     <use xlink:href="#DejaVuSans-69" x="1159.648438"/>
     <use xlink:href="#DejaVuSans-6c" x="1187.431641"/>
     <use xlink:href="#DejaVuSans-65" x="1215.214844"/>
     <use xlink:href="#DejaVuSans-20" x="1276.738281"/>
     <use xlink:href="#DejaVuSans-61" x="1308.525391"/>
     <use xlink:href="#DejaVuSans-6c" x="1369.804688"/>
     <use xlink:href="#DejaVuSans-6c" x="1397.587891"/>
     <use xlink:href="#DejaVuSans-20" x="1425.371094"/>
     <use xlink:href="#DejaVuSans-6d" x="1457.158203"/>
     <use xlink:href="#DejaVuSans-69" x="1554.570312"/>
     <use xlink:href="#DejaVuSans-73" x="1582.353516"/>
     <use xlink:href="#DejaVuSans-73" x="1634.453125"/>
     <use xlink:href="#DejaVuSans-69" x="1686.552734"/>
     <use xlink:href="#DejaVuSans-6c" x="1714.335938"/>
     <use xlink:href="#DejaVuSans-65" x="1742.119141"/>
     <use xlink:href="#DejaVuSans-20" x="1803.642578"/>
     <use xlink:href="#DejaVuSans-65" x="1835.429688"/>
     <use xlink:href="#DejaVuSans-76" x="1896.953125"/>
     <use xlink:href="#DejaVuSans-65" x="1956.132812"/>
     <use xlink:href="#DejaVuSans-6e" x="2017.65625"/>
     <use xlink:href="#DejaVuSans-74" x="2081.035156"/>
     <use xlink:href="#DejaVuSans-73" x="2120.244141"/>
    </g>
   </g>
   <g id="legend_1">
    <g id="patch_7">
     <path d="M 468.352344 63.41 
L 580.9975 63.41 
Q 583.1975 63.41 583.1975 61.21 
L 583.1975 30.018125 
Q 583.1975 27.818125 580.9975 27.818125 
L 468.352344 27.818125 
Q 466.152344 27.818125 466.152344 30.018125 
L 466.152344 61.21 
Q 466.152344 63.41 468.352344 63.41 
z
" style="fill: #eaeaf2; opacity: 0.8; stroke: #cccccc; stroke-linejoin: miter"/>
    </g>
    <g id="line2d_24">
     <path d="M 470.552344 36.726406 
L 481.552344 36.726406 
L 492.552344 36.726406 
" style="fill: none; stroke: #4c72b0; stroke-width: 1.5; stroke-linecap: round"/>
    </g>
    <g id="text_22">
     <!-- Missile events -->
     <g style="fill: #262626" transform="translate(501.352344 40.576406) scale(0.11 -0.11)">
      <use xlink:href="#DejaVuSans-4d"/>
      <use xlink:href="#DejaVuSans-69" x="86.279297"/>
      <use xlink:href="#DejaVuSans-73" x="114.0625"/>
      <use xlink:href="#DejaVuSans-73" x="166.162109"/>
      <use xlink:href="#DejaVuSans-69" x="218.261719"/>
      <use xlink:href="#DejaVuSans-6c" x="246.044922"/>
      <use xlink:href="#DejaVuSans-65" x="273.828125"/>
      <use xlink:href="#DejaVuSans-20" x="335.351562"/>
      <use xlink:href="#DejaVuSans-65" x="367.138672"/>
      <use xlink:href="#DejaVuSans-76" x="428.662109"/>
      <use xlink:href="#DejaVuSans-65" x="487.841797"/>
      <use xlink:href="#DejaVuSans-6e" x="549.365234"/>
      <use xlink:href="#DejaVuSans-74" x="612.744141"/>
      <use xlink:href="#DejaVuSans-73" x="651.953125"/>
     </g>
    </g>
    <g id="line2d_25">
     <path d="M 470.552344 52.872344 
L 481.552344 52.872344 
L 492.552344 52.872344 
" style="fill: none; stroke: #dd8452; stroke-width: 1.5; stroke-linecap: round"/>
    </g>
    <g id="text_23">
     <!-- Air strikes -->
     <g style="fill: #262626" transform="translate(501.352344 56.722344) scale(0.11 -0.11)">
      <use xlink:href="#DejaVuSans-41"/>
      <use xlink:href="#DejaVuSans-69" x="68.408203"/>
      <use xlink:href="#DejaVuSans-72" x="96.191406"/>
      <use xlink:href="#DejaVuSans-20" x="137.304688"/>
      <use xlink:href="#DejaVuSans-73" x="169.091797"/>
      <use xlink:href="#DejaVuSans-74" x="221.191406"/>
      <use xlink:href="#DejaVuSans-72" x="260.400391"/>
      <use xlink:href="#DejaVuSans-69" x="301.513672"/>
      <use xlink:href="#DejaVuSans-6b" x="329.296875"/>
      <use xlink:href="#DejaVuSans-65" x="383.582031"/>
      <use xlink:href="#DejaVuSans-73" x="445.105469"/>
     </g>
    </g>
   </g>
  </g>
 </g>
 <defs>
  <clipPath id="peae4f9c95b">
   <rect x="30.6975" y="22.318125" width="558" height="277.2"/>
  </clipPath>
 </defs>
</svg>
