<?xml version="1.0" encoding="utf-8" standalone="no"?>
<!DOCTYPE svg PUBLIC "-//W3C//DTD SVG 1.1//EN"
  "http://www.w3.org/Graphics/SVG/1.1/DTD/svg11.dtd">
<svg xmlns:xlink="http://www.w3.org/1999/xlink" width="608.434197pt" height="315.925078pt" viewBox="0 0 608.434197 315.925078" xmlns="http://www.w3.org/2000/svg" version="1.1">
 <metadata>
  <rdf:RDF xmlns:dc="http://purl.org/dc/elements/1.1/" xmlns:cc="http://creativecommons.org/ns#" xmlns:rdf="http://www.w3.org/1999/02/22-rdf-syntax-ns#">
   <cc:Work>
    <dc:type rdf:resource="http://purl.org/dc/dcmitype/StillImage"/>
    <dc:date>2023-03-20T18:07:31.141858</dc:date>
    <dc:format>image/svg+xml</dc:format>
    <dc:creator>
     <cc:Agent>
      <dc:title>Matplotlib v3.6.2, https://matplotlib.org/</dc:title>
     </cc:Agent>
    </dc:creator>
   </cc:Work>
  </rdf:RDF>
 </metadata>
 <defs>
  <style type="text/css">*{stroke-linejoin: round; stroke-linecap: butt}</style>
 </defs>
 <g id="figure_1">
  <g id="patch_1">
   <path d="M 0 315.925078 
L 608.434197 315.925078 
L 608.434197 0 
L 0 0 
z
" style="fill: #ffffff"/>
  </g>
  <g id="axes_1">
   <g id="patch_2">
    <path d="M 30.6975 288.579141 
L 588.6975 288.579141 
L 588.6975 11.379141 
L 30.6975 11.379141 
z
" style="fill: #eaeaf2"/>
   </g>
   <g id="matplotlib.axis_1">
    <g id="xtick_1">
     <g id="line2d_1">
      <path d="M 65.386003 288.579141 
L 65.386003 11.379141 
" clip-path="url(#p4e440ffb73)" style="fill: none; stroke: #ffffff; stroke-linecap: round"/>
     </g>
     <g id="text_1">
      <!-- 2022-03 -->
      <g style="fill: #262626" transform="translate(42.405456 306.437422) scale(0.11 -0.11)">
       <defs>
        <path id="DejaVuSans-32" d="M 1228 531 
L 3431 531 
L 3431 0 
L 469 0 
L 469 531 
Q 828 903 1448 1529 
Q 2069 2156 2228 2338 
Q 2531 2678 2651 2914 
Q 2772 3150 2772 3378 
Q 2772 3750 2511 3984 
Q 2250 4219 1831 4219 
Q 1534 4219 1204 4116 
Q 875 4013 500 3803 
L 500 4441 
Q 881 4594 1212 4672 
Q 1544 4750 1819 4750 
Q 2544 4750 2975 4387 
Q 3406 4025 3406 3419 
Q 3406 3131 3298 2873 
Q 3191 2616 2906 2266 
Q 2828 2175 2409 1742 
Q 1991 1309 1228 531 
z
" transform="scale(0.015625)"/>
        <path id="DejaVuSans-30" d="M 2034 4250 
Q 1547 4250 1301 3770 
Q 1056 3291 1056 2328 
Q 1056 1369 1301 889 
Q 1547 409 2034 409 
Q 2525 409 2770 889 
Q 3016 1369 3016 2328 
Q 3016 3291 2770 3770 
Q 2525 4250 2034 4250 
z
M 2034 4750 
Q 2819 4750 3233 4129 
Q 3647 3509 3647 2328 
Q 3647 1150 3233 529 
Q 2819 -91 2034 -91 
Q 1250 -91 836 529 
Q 422 1150 422 2328 
Q 422 3509 836 4129 
Q 1250 4750 2034 4750 
z
" transform="scale(0.015625)"/>
        <path id="DejaVuSans-2d" d="M 313 2009 
L 1997 2009 
L 1997 1497 
L 313 1497 
L 313 2009 
z
" transform="scale(0.015625)"/>
        <path id="DejaVuSans-33" d="M 2597 2516 
Q 3050 2419 3304 2112 
Q 3559 1806 3559 1356 
Q 3559 666 3084 287 
Q 2609 -91 1734 -91 
Q 1441 -91 1130 -33 
Q 819 25 488 141 
L 488 750 
Q 750 597 1062 519 
Q 1375 441 1716 441 
Q 2309 441 2620 675 
Q 2931 909 2931 1356 
Q 2931 1769 2642 2001 
Q 2353 2234 1838 2234 
L 1294 2234 
L 1294 2753 
L 1863 2753 
Q 2328 2753 2575 2939 
Q 2822 3125 2822 3475 
Q 2822 3834 2567 4026 
Q 2313 4219 1838 4219 
Q 1578 4219 1281 4162 
Q 984 4106 628 3988 
L 628 4550 
Q 988 4650 1302 4700 
Q 1616 4750 1894 4750 
Q 2613 4750 3031 4423 
Q 3450 4097 3450 3541 
Q 3450 3153 3228 2886 
Q 3006 2619 2597 2516 
z
" transform="scale(0.015625)"/>
       </defs>
       <use xlink:href="#DejaVuSans-32"/>
       <use xlink:href="#DejaVuSans-30" x="63.623047"/>
       <use xlink:href="#DejaVuSans-32" x="127.246094"/>
       <use xlink:href="#DejaVuSans-32" x="190.869141"/>
       <use xlink:href="#DejaVuSans-2d" x="254.492188"/>
       <use xlink:href="#DejaVuSans-30" x="290.576172"/>
       <use xlink:href="#DejaVuSans-33" x="354.199219"/>
      </g>
     </g>
    </g>
    <g id="xtick_2">
     <g id="line2d_2">
      <path d="M 123.200174 288.579141 
L 123.200174 11.379141 
" clip-path="url(#p4e440ffb73)" style="fill: none; stroke: #ffffff; stroke-linecap: round"/>
     </g>
     <g id="text_2">
      <!-- 2022-04 -->
      <g style="fill: #262626" transform="translate(100.219627 306.437422) scale(0.11 -0.11)">
       <defs>
        <path id="DejaVuSans-34" d="M 2419 4116 
L 825 1625 
L 2419 1625 
L 2419 4116 
z
M 2253 4666 
L 3047 4666 
L 3047 1625 
L 3713 1625 
L 3713 1100 
L 3047 1100 
L 3047 0 
L 2419 0 
L 2419 1100 
L 313 1100 
L 313 1709 
L 2253 4666 
z
" transform="scale(0.015625)"/>
       </defs>
       <use xlink:href="#DejaVuSans-32"/>
       <use xlink:href="#DejaVuSans-30" x="63.623047"/>
       <use xlink:href="#DejaVuSans-32" x="127.246094"/>
       <use xlink:href="#DejaVuSans-32" x="190.869141"/>
       <use xlink:href="#DejaVuSans-2d" x="254.492188"/>
       <use xlink:href="#DejaVuSans-30" x="290.576172"/>
       <use xlink:href="#DejaVuSans-34" x="354.199219"/>
      </g>
     </g>
    </g>
    <g id="xtick_3">
     <g id="line2d_3">
      <path d="M 179.149372 288.579141 
L 179.149372 11.379141 
" clip-path="url(#p4e440ffb73)" style="fill: none; stroke: #ffffff; stroke-linecap: round"/>
     </g>
     <g id="text_3">
      <!-- 2022-05 -->
      <g style="fill: #262626" transform="translate(156.168825 306.437422) scale(0.11 -0.11)">
       <defs>
        <path id="DejaVuSans-35" d="M 691 4666 
L 3169 4666 
L 3169 4134 
L 1269 4134 
L 1269 2991 
Q 1406 3038 1543 3061 
Q 1681 3084 1819 3084 
Q 2600 3084 3056 2656 
Q 3513 2228 3513 1497 
Q 3513 744 3044 326 
Q 2575 -91 1722 -91 
Q 1428 -91 1123 -41 
Q 819 9 494 109 
L 494 744 
Q 775 591 1075 516 
Q 1375 441 1709 441 
Q 2250 441 2565 725 
Q 2881 1009 2881 1497 
Q 2881 1984 2565 2268 
Q 2250 2553 1709 2553 
Q 1456 2553 1204 2497 
Q 953 2441 691 2322 
L 691 4666 
z
" transform="scale(0.015625)"/>
       </defs>
       <use xlink:href="#DejaVuSans-32"/>
       <use xlink:href="#DejaVuSans-30" x="63.623047"/>
       <use xlink:href="#DejaVuSans-32" x="127.246094"/>
       <use xlink:href="#DejaVuSans-32" x="190.869141"/>
       <use xlink:href="#DejaVuSans-2d" x="254.492188"/>
       <use xlink:href="#DejaVuSans-30" x="290.576172"/>
       <use xlink:href="#DejaVuSans-35" x="354.199219"/>
      </g>
     </g>
    </g>
    <g id="xtick_4">
     <g id="line2d_4">
      <path d="M 236.963543 288.579141 
L 236.963543 11.379141 
" clip-path="url(#p4e440ffb73)" style="fill: none; stroke: #ffffff; stroke-linecap: round"/>
     </g>
     <g id="text_4">
      <!-- 2022-06 -->
      <g style="fill: #262626" transform="translate(213.982996 306.437422) scale(0.11 -0.11)">
       <defs>
        <path id="DejaVuSans-36" d="M 2113 2584 
Q 1688 2584 1439 2293 
Q 1191 2003 1191 1497 
Q 1191 994 1439 701 
Q 1688 409 2113 409 
Q 2538 409 2786 701 
Q 3034 994 3034 1497 
Q 3034 2003 2786 2293 
Q 2538 2584 2113 2584 
z
M 3366 4563 
L 3366 3988 
Q 3128 4100 2886 4159 
Q 2644 4219 2406 4219 
Q 1781 4219 1451 3797 
Q 1122 3375 1075 2522 
Q 1259 2794 1537 2939 
Q 1816 3084 2150 3084 
Q 2853 3084 3261 2657 
Q 3669 2231 3669 1497 
Q 3669 778 3244 343 
Q 2819 -91 2113 -91 
Q 1303 -91 875 529 
Q 447 1150 447 2328 
Q 447 3434 972 4092 
Q 1497 4750 2381 4750 
Q 2619 4750 2861 4703 
Q 3103 4656 3366 4563 
z
" transform="scale(0.015625)"/>
       </defs>
       <use xlink:href="#DejaVuSans-32"/>
       <use xlink:href="#DejaVuSans-30" x="63.623047"/>
       <use xlink:href="#DejaVuSans-32" x="127.246094"/>
       <use xlink:href="#DejaVuSans-32" x="190.869141"/>
       <use xlink:href="#DejaVuSans-2d" x="254.492188"/>
       <use xlink:href="#DejaVuSans-30" x="290.576172"/>
       <use xlink:href="#DejaVuSans-36" x="354.199219"/>
      </g>
     </g>
    </g>
    <g id="xtick_5">
     <g id="line2d_5">
      <path d="M 292.912741 288.579141 
L 292.912741 11.379141 
" clip-path="url(#p4e440ffb73)" style="fill: none; stroke: #ffffff; stroke-linecap: round"/>
     </g>
     <g id="text_5">
      <!-- 2022-07 -->
      <g style="fill: #262626" transform="translate(269.932194 306.437422) scale(0.11 -0.11)">
       <defs>
        <path id="DejaVuSans-37" d="M 525 4666 
L 3525 4666 
L 3525 4397 
L 1831 0 
L 1172 0 
L 2766 4134 
L 525 4134 
L 525 4666 
z
" transform="scale(0.015625)"/>
       </defs>
       <use xlink:href="#DejaVuSans-32"/>
       <use xlink:href="#DejaVuSans-30" x="63.623047"/>
       <use xlink:href="#DejaVuSans-32" x="127.246094"/>
       <use xlink:href="#DejaVuSans-32" x="190.869141"/>
       <use xlink:href="#DejaVuSans-2d" x="254.492188"/>
       <use xlink:href="#DejaVuSans-30" x="290.576172"/>
       <use xlink:href="#DejaVuSans-37" x="354.199219"/>
      </g>
     </g>
    </g>
    <g id="xtick_6">
     <g id="line2d_6">
      <path d="M 350.726912 288.579141 
L 350.726912 11.379141 
" clip-path="url(#p4e440ffb73)" style="fill: none; stroke: #ffffff; stroke-linecap: round"/>
     </g>
     <g id="text_6">
      <!-- 2022-08 -->
      <g style="fill: #262626" transform="translate(327.746365 306.437422) scale(0.11 -0.11)">
       <defs>
        <path id="DejaVuSans-38" d="M 2034 2216 
Q 1584 2216 1326 1975 
Q 1069 1734 1069 1313 
Q 1069 891 1326 650 
Q 1584 409 2034 409 
Q 2484 409 2743 651 
Q 3003 894 3003 1313 
Q 3003 1734 2745 1975 
Q 2488 2216 2034 2216 
z
M 1403 2484 
Q 997 2584 770 2862 
Q 544 3141 544 3541 
Q 544 4100 942 4425 
Q 1341 4750 2034 4750 
Q 2731 4750 3128 4425 
Q 3525 4100 3525 3541 
Q 3525 3141 3298 2862 
Q 3072 2584 2669 2484 
Q 3125 2378 3379 2068 
Q 3634 1759 3634 1313 
Q 3634 634 3220 271 
Q 2806 -91 2034 -91 
Q 1263 -91 848 271 
Q 434 634 434 1313 
Q 434 1759 690 2068 
Q 947 2378 1403 2484 
z
M 1172 3481 
Q 1172 3119 1398 2916 
Q 1625 2713 2034 2713 
Q 2441 2713 2670 2916 
Q 2900 3119 2900 3481 
Q 2900 3844 2670 4047 
Q 2441 4250 2034 4250 
Q 1625 4250 1398 4047 
Q 1172 3844 1172 3481 
z
" transform="scale(0.015625)"/>
       </defs>
       <use xlink:href="#DejaVuSans-32"/>
       <use xlink:href="#DejaVuSans-30" x="63.623047"/>
       <use xlink:href="#DejaVuSans-32" x="127.246094"/>
       <use xlink:href="#DejaVuSans-32" x="190.869141"/>
       <use xlink:href="#DejaVuSans-2d" x="254.492188"/>
       <use xlink:href="#DejaVuSans-30" x="290.576172"/>
       <use xlink:href="#DejaVuSans-38" x="354.199219"/>
      </g>
     </g>
    </g>
    <g id="xtick_7">
     <g id="line2d_7">
      <path d="M 408.541083 288.579141 
L 408.541083 11.379141 
" clip-path="url(#p4e440ffb73)" style="fill: none; stroke: #ffffff; stroke-linecap: round"/>
     </g>
     <g id="text_7">
      <!-- 2022-09 -->
      <g style="fill: #262626" transform="translate(385.560536 306.437422) scale(0.11 -0.11)">
       <defs>
        <path id="DejaVuSans-39" d="M 703 97 
L 703 672 
Q 941 559 1184 500 
Q 1428 441 1663 441 
Q 2288 441 2617 861 
Q 2947 1281 2994 2138 
Q 2813 1869 2534 1725 
Q 2256 1581 1919 1581 
Q 1219 1581 811 2004 
Q 403 2428 403 3163 
Q 403 3881 828 4315 
Q 1253 4750 1959 4750 
Q 2769 4750 3195 4129 
Q 3622 3509 3622 2328 
Q 3622 1225 3098 567 
Q 2575 -91 1691 -91 
Q 1453 -91 1209 -44 
Q 966 3 703 97 
z
M 1959 2075 
Q 2384 2075 2632 2365 
Q 2881 2656 2881 3163 
Q 2881 3666 2632 3958 
Q 2384 4250 1959 4250 
Q 1534 4250 1286 3958 
Q 1038 3666 1038 3163 
Q 1038 2656 1286 2365 
Q 1534 2075 1959 2075 
z
" transform="scale(0.015625)"/>
       </defs>
       <use xlink:href="#DejaVuSans-32"/>
       <use xlink:href="#DejaVuSans-30" x="63.623047"/>
       <use xlink:href="#DejaVuSans-32" x="127.246094"/>
       <use xlink:href="#DejaVuSans-32" x="190.869141"/>
       <use xlink:href="#DejaVuSans-2d" x="254.492188"/>
       <use xlink:href="#DejaVuSans-30" x="290.576172"/>
       <use xlink:href="#DejaVuSans-39" x="354.199219"/>
      </g>
     </g>
    </g>
    <g id="xtick_8">
     <g id="line2d_8">
      <path d="M 464.490281 288.579141 
L 464.490281 11.379141 
" clip-path="url(#p4e440ffb73)" style="fill: none; stroke: #ffffff; stroke-linecap: round"/>
     </g>
     <g id="text_8">
      <!-- 2022-10 -->
      <g style="fill: #262626" transform="translate(441.509734 306.437422) scale(0.11 -0.11)">
       <defs>
        <path id="DejaVuSans-31" d="M 794 531 
L 1825 531 
L 1825 4091 
L 703 3866 
L 703 4441 
L 1819 4666 
L 2450 4666 
L 2450 531 
L 3481 531 
L 3481 0 
L 794 0 
L 794 531 
z
" transform="scale(0.015625)"/>
       </defs>
       <use xlink:href="#DejaVuSans-32"/>
       <use xlink:href="#DejaVuSans-30" x="63.623047"/>
       <use xlink:href="#DejaVuSans-32" x="127.246094"/>
       <use xlink:href="#DejaVuSans-32" x="190.869141"/>
       <use xlink:href="#DejaVuSans-2d" x="254.492188"/>
       <use xlink:href="#DejaVuSans-31" x="290.576172"/>
       <use xlink:href="#DejaVuSans-30" x="354.199219"/>
      </g>
     </g>
    </g>
    <g id="xtick_9">
     <g id="line2d_9">
      <path d="M 522.304452 288.579141 
L 522.304452 11.379141 
" clip-path="url(#p4e440ffb73)" style="fill: none; stroke: #ffffff; stroke-linecap: round"/>
     </g>
     <g id="text_9">
      <!-- 2022-11 -->
      <g style="fill: #262626" transform="translate(499.323905 306.437422) scale(0.11 -0.11)">
       <use xlink:href="#DejaVuSans-32"/>
       <use xlink:href="#DejaVuSans-30" x="63.623047"/>
       <use xlink:href="#DejaVuSans-32" x="127.246094"/>
       <use xlink:href="#DejaVuSans-32" x="190.869141"/>
       <use xlink:href="#DejaVuSans-2d" x="254.492188"/>
       <use xlink:href="#DejaVuSans-31" x="290.576172"/>
       <use xlink:href="#DejaVuSans-31" x="354.199219"/>
      </g>
     </g>
    </g>
    <g id="xtick_10">
     <g id="line2d_10">
      <path d="M 578.25365 288.579141 
L 578.25365 11.379141 
" clip-path="url(#p4e440ffb73)" style="fill: none; stroke: #ffffff; stroke-linecap: round"/>
     </g>
     <g id="text_10">
      <!-- 2022-12 -->
      <g style="fill: #262626" transform="translate(555.273103 306.437422) scale(0.11 -0.11)">
       <use xlink:href="#DejaVuSans-32"/>
       <use xlink:href="#DejaVuSans-30" x="63.623047"/>
       <use xlink:href="#DejaVuSans-32" x="127.246094"/>
       <use xlink:href="#DejaVuSans-32" x="190.869141"/>
       <use xlink:href="#DejaVuSans-2d" x="254.492188"/>
       <use xlink:href="#DejaVuSans-31" x="290.576172"/>
       <use xlink:href="#DejaVuSans-32" x="354.199219"/>
      </g>
     </g>
    </g>
   </g>
   <g id="matplotlib.axis_2">
    <g id="ytick_1">
     <g id="line2d_11">
      <path d="M 30.6975 288.579141 
L 588.6975 288.579141 
" clip-path="url(#p4e440ffb73)" style="fill: none; stroke: #ffffff; stroke-linecap: round"/>
     </g>
     <g id="text_11">
      <!-- 0 -->
      <g style="fill: #262626" transform="translate(14.19875 292.758281) scale(0.11 -0.11)">
       <use xlink:href="#DejaVuSans-30"/>
      </g>
     </g>
    </g>
    <g id="ytick_2">
     <g id="line2d_12">
      <path d="M 30.6975 233.139141 
L 588.6975 233.139141 
" clip-path="url(#p4e440ffb73)" style="fill: none; stroke: #ffffff; stroke-linecap: round"/>
     </g>
     <g id="text_12">
      <!-- 10 -->
      <g style="fill: #262626" transform="translate(7.2 237.318281) scale(0.11 -0.11)">
       <use xlink:href="#DejaVuSans-31"/>
       <use xlink:href="#DejaVuSans-30" x="63.623047"/>
      </g>
     </g>
    </g>
    <g id="ytick_3">
     <g id="line2d_13">
      <path d="M 30.6975 177.699141 
L 588.6975 177.699141 
" clip-path="url(#p4e440ffb73)" style="fill: none; stroke: #ffffff; stroke-linecap: round"/>
     </g>
     <g id="text_13">
      <!-- 20 -->
      <g style="fill: #262626" transform="translate(7.2 181.878281) scale(0.11 -0.11)">
       <use xlink:href="#DejaVuSans-32"/>
       <use xlink:href="#DejaVuSans-30" x="63.623047"/>
      </g>
     </g>
    </g>
    <g id="ytick_4">
     <g id="line2d_14">
      <path d="M 30.6975 122.259141 
L 588.6975 122.259141 
" clip-path="url(#p4e440ffb73)" style="fill: none; stroke: #ffffff; stroke-linecap: round"/>
     </g>
     <g id="text_14">
      <!-- 30 -->
      <g style="fill: #262626" transform="translate(7.2 126.438281) scale(0.11 -0.11)">
       <use xlink:href="#DejaVuSans-33"/>
       <use xlink:href="#DejaVuSans-30" x="63.623047"/>
      </g>
     </g>
    </g>
    <g id="ytick_5">
     <g id="line2d_15">
      <path d="M 30.6975 66.819141 
L 588.6975 66.819141 
" clip-path="url(#p4e440ffb73)" style="fill: none; stroke: #ffffff; stroke-linecap: round"/>
     </g>
     <g id="text_15">
      <!-- 40 -->
      <g style="fill: #262626" transform="translate(7.2 70.998281) scale(0.11 -0.11)">
       <use xlink:href="#DejaVuSans-34"/>
       <use xlink:href="#DejaVuSans-30" x="63.623047"/>
      </g>
     </g>
    </g>
    <g id="ytick_6">
     <g id="line2d_16">
      <path d="M 30.6975 11.379141 
L 588.6975 11.379141 
" clip-path="url(#p4e440ffb73)" style="fill: none; stroke: #ffffff; stroke-linecap: round"/>
     </g>
     <g id="text_16">
      <!-- 50 -->
      <g style="fill: #262626" transform="translate(7.2 15.558281) scale(0.11 -0.11)">
       <use xlink:href="#DejaVuSans-35"/>
       <use xlink:href="#DejaVuSans-30" x="63.623047"/>
      </g>
     </g>
    </g>
   </g>
   <g id="PathCollection_1">
    <path d="M 56.061136 149.645269 
C 63.324022 149.645269 70.290417 146.759693 75.426053 141.624057 
C 80.561689 136.488421 83.447264 129.522027 83.447264 122.259141 
C 83.447264 114.996255 80.561689 108.02986 75.426053 102.894224 
C 70.290417 97.758588 63.324022 94.873013 56.061136 94.873013 
C 48.79825 94.873013 41.831856 97.758588 36.69622 102.894224 
C 31.560584 108.02986 28.675008 114.996255 28.675008 122.259141 
C 28.675008 129.522027 31.560584 136.488421 36.69622 141.624057 
C 41.831856 146.759693 48.79825 149.645269 56.061136 149.645269 
z
" clip-path="url(#p4e440ffb73)" style="fill: #731f58; fill-opacity: 0.4; stroke: #731f58; stroke-opacity: 0.4"/>
    <path d="M 63.521029 229.671428 
C 68.482525 229.671428 73.241479 227.700204 76.749786 224.191897 
C 80.258093 220.68359 82.229316 215.924636 82.229316 210.963141 
C 82.229316 206.001645 80.258093 201.242691 76.749786 197.734384 
C 73.241479 194.226077 68.482525 192.254854 63.521029 192.254854 
C 58.559534 192.254854 53.80058 194.226077 50.292273 197.734384 
C 46.783966 201.242691 44.812742 206.001645 44.812742 210.963141 
C 44.812742 215.924636 46.783966 220.68359 50.292273 224.191897 
C 53.80058 227.700204 58.559534 229.671428 63.521029 229.671428 
z
" clip-path="url(#p4e440ffb73)" style="fill: #f6c19f; fill-opacity: 0.4; stroke: #f6c19f; stroke-opacity: 0.4"/>
    <path d="M 65.386003 239.371649 
C 69.979455 239.371649 74.38539 237.546651 77.633451 234.298589 
C 80.881513 231.050528 82.706511 226.644593 82.706511 222.051141 
C 82.706511 217.457688 80.881513 213.051753 77.633451 209.803692 
C 74.38539 206.555631 69.979455 204.730633 65.386003 204.730633 
C 60.79255 204.730633 56.386615 206.555631 53.138554 209.803692 
C 49.890493 213.051753 48.065495 217.457688 48.065495 222.051141 
C 48.065495 226.644593 49.890493 231.050528 53.138554 234.298589 
C 56.386615 237.546651 60.79255 239.371649 65.386003 239.371649 
z
" clip-path="url(#p4e440ffb73)" style="fill: #f9ddc9; fill-opacity: 0.4; stroke: #f9ddc9; stroke-opacity: 0.4"/>
    <path d="M 97.090548 229.671428 
C 102.052044 229.671428 106.810997 227.700204 110.319305 224.191897 
C 113.827612 220.68359 115.798835 215.924636 115.798835 210.963141 
C 115.798835 206.001645 113.827612 201.242691 110.319305 197.734384 
C 106.810997 194.226077 102.052044 192.254854 97.090548 192.254854 
C 92.129052 192.254854 87.370099 194.226077 83.861792 197.734384 
C 80.353484 201.242691 78.382261 206.001645 78.382261 210.963141 
C 78.382261 215.924636 80.353484 220.68359 83.861792 224.191897 
C 87.370099 227.700204 92.129052 229.671428 97.090548 229.671428 
z
" clip-path="url(#p4e440ffb73)" style="fill: #f6c19f; fill-opacity: 0.4; stroke: #f6c19f; stroke-opacity: 0.4"/>
    <path d="M 139.984933 205.037635 
C 145.764901 205.037635 151.308914 202.74123 155.395968 198.654176 
C 159.483022 194.567121 161.779428 189.023108 161.779428 183.243141 
C 161.779428 177.463173 159.483022 171.91916 155.395968 167.832106 
C 151.308914 163.745051 145.764901 161.448646 139.984933 161.448646 
C 134.204966 161.448646 128.660952 163.745051 124.573898 167.832106 
C 120.486844 171.91916 118.190438 177.463173 118.190438 183.243141 
C 118.190438 189.023108 120.486844 194.567121 124.573898 198.654176 
C 128.660952 202.74123 134.204966 205.037635 139.984933 205.037635 
z
" clip-path="url(#p4e440ffb73)" style="fill: #f3734e; fill-opacity: 0.4; stroke: #f3734e; stroke-opacity: 0.4"/>
    <path d="M 145.579853 234.534897 
C 150.36087 234.534897 154.946712 232.635379 158.327402 229.254689 
C 161.708091 225.874 163.607609 221.288158 163.607609 216.507141 
C 163.607609 211.726124 161.708091 207.140281 158.327402 203.759592 
C 154.946712 200.378902 150.36087 198.479384 145.579853 198.479384 
C 140.798836 198.479384 136.212994 200.378902 132.832304 203.759592 
C 129.451615 207.140281 127.552097 211.726124 127.552097 216.507141 
C 127.552097 221.288158 129.451615 225.874 132.832304 229.254689 
C 136.212994 232.635379 140.798836 234.534897 145.579853 234.534897 
z
" clip-path="url(#p4e440ffb73)" style="fill: #f7d0b5; fill-opacity: 0.4; stroke: #f7d0b5; stroke-opacity: 0.4"/>
    <path d="M 153.039746 234.534897 
C 157.820763 234.534897 162.406605 232.635379 165.787295 229.254689 
C 169.167984 225.874 171.067502 221.288158 171.067502 216.507141 
C 171.067502 211.726124 169.167984 207.140281 165.787295 203.759592 
C 162.406605 200.378902 157.820763 198.479384 153.039746 198.479384 
C 148.258729 198.479384 143.672887 200.378902 140.292197 203.759592 
C 136.911508 207.140281 135.01199 211.726124 135.01199 216.507141 
C 135.01199 221.288158 136.911508 225.874 140.292197 229.254689 
C 143.672887 232.635379 148.258729 234.534897 153.039746 234.534897 
z
" clip-path="url(#p4e440ffb73)" style="fill: #f7d0b5; fill-opacity: 0.4; stroke: #f7d0b5; stroke-opacity: 0.4"/>
    <path d="M 156.769693 195.068019 
C 162.846259 195.068019 168.674763 192.653774 172.971544 188.356992 
C 177.268326 184.060211 179.682571 178.231707 179.682571 172.155141 
C 179.682571 166.078574 177.268326 160.25007 172.971544 155.953289 
C 168.674763 151.656508 162.846259 149.242262 156.769693 149.242262 
C 150.693126 149.242262 144.864622 151.656508 140.567841 155.953289 
C 136.271059 160.25007 133.856814 166.078574 133.856814 172.155141 
C 133.856814 178.231707 136.271059 184.060211 140.567841 188.356992 
C 144.864622 192.653774 150.693126 195.068019 156.769693 195.068019 
z
" clip-path="url(#p4e440ffb73)" style="fill: #ed4e3e; fill-opacity: 0.4; stroke: #ed4e3e; stroke-opacity: 0.4"/>
    <path d="M 164.229586 219.875141 
C 169.533648 219.875141 174.621183 217.767814 178.371721 214.017276 
C 182.122259 210.266738 184.229586 205.179203 184.229586 199.875141 
C 184.229586 194.571079 182.122259 189.483543 178.371721 185.733005 
C 174.621183 181.982467 169.533648 179.875141 164.229586 179.875141 
C 158.925524 179.875141 153.837988 181.982467 150.08745 185.733005 
C 146.336912 189.483543 144.229586 194.571079 144.229586 199.875141 
C 144.229586 205.179203 146.336912 210.266738 150.08745 214.017276 
C 153.837988 217.767814 158.925524 219.875141 164.229586 219.875141 
z
" clip-path="url(#p4e440ffb73)" style="fill: #f6a37a; fill-opacity: 0.4; stroke: #f6a37a; stroke-opacity: 0.4"/>
    <path d="M 167.959532 239.371649 
C 172.552985 239.371649 176.958919 237.546651 180.206981 234.298589 
C 183.455042 231.050528 185.28004 226.644593 185.28004 222.051141 
C 185.28004 217.457688 183.455042 213.051753 180.206981 209.803692 
C 176.958919 206.555631 172.552985 204.730633 167.959532 204.730633 
C 163.36608 204.730633 158.960145 206.555631 155.712083 209.803692 
C 152.464022 213.051753 150.639024 217.457688 150.639024 222.051141 
C 150.639024 226.644593 152.464022 231.050528 155.712083 234.298589 
C 158.960145 237.546651 163.36608 239.371649 167.959532 239.371649 
z
" clip-path="url(#p4e440ffb73)" style="fill: #f9ddc9; fill-opacity: 0.4; stroke: #f9ddc9; stroke-opacity: 0.4"/>
    <path d="M 169.824505 244.178265 
C 174.222401 244.178265 178.440763 242.430962 181.550545 239.32118 
C 184.660327 236.211398 186.407629 231.993037 186.407629 227.595141 
C 186.407629 223.197245 184.660327 218.978883 181.550545 215.869101 
C 178.440763 212.759319 174.222401 211.012017 169.824505 211.012017 
C 165.426609 211.012017 161.208248 212.759319 158.098466 215.869101 
C 154.988684 218.978883 153.241381 223.197245 153.241381 227.595141 
C 153.241381 231.993037 154.988684 236.211398 158.098466 239.32118 
C 161.208248 242.430962 165.426609 244.178265 169.824505 244.178265 
z
" clip-path="url(#p4e440ffb73)" style="fill: #faebdd; fill-opacity: 0.4; stroke: #faebdd; stroke-opacity: 0.4"/>
    <path d="M 179.149372 214.946669 
C 184.616674 214.946669 189.860785 212.774487 193.726751 208.90852 
C 197.592718 205.042554 199.7649 199.798443 199.7649 194.331141 
C 199.7649 188.863839 197.592718 183.619727 193.726751 179.753761 
C 189.860785 175.887795 184.616674 173.715612 179.149372 173.715612 
C 173.68207 173.715612 168.437958 175.887795 164.571992 179.753761 
C 160.706026 183.619727 158.533844 188.863839 158.533844 194.331141 
C 158.533844 199.798443 160.706026 205.042554 164.571992 208.90852 
C 168.437958 212.774487 173.68207 214.946669 179.149372 214.946669 
z
" clip-path="url(#p4e440ffb73)" style="fill: #f5946b; fill-opacity: 0.4; stroke: #f5946b; stroke-opacity: 0.4"/>
    <path d="M 182.879318 200.05982 
C 188.80944 200.05982 194.497477 197.703758 198.690706 193.510529 
C 202.883936 189.3173 205.239998 183.629262 205.239998 177.699141 
C 205.239998 171.769019 202.883936 166.080982 198.690706 161.887752 
C 194.497477 157.694523 188.80944 155.338461 182.879318 155.338461 
C 176.949197 155.338461 171.261159 157.694523 167.06793 161.887752 
C 162.874701 166.080982 160.518638 171.769019 160.518638 177.699141 
C 160.518638 183.629262 162.874701 189.3173 167.06793 193.510529 
C 171.261159 197.703758 176.949197 200.05982 182.879318 200.05982 
z
" clip-path="url(#p4e440ffb73)" style="fill: #f06043; fill-opacity: 0.4; stroke: #f06043; stroke-opacity: 0.4"/>
    <path d="M 207.123971 200.05982 
C 213.054092 200.05982 218.74213 197.703758 222.935359 193.510529 
C 227.128588 189.3173 229.48465 183.629262 229.48465 177.699141 
C 229.48465 171.769019 227.128588 166.080982 222.935359 161.887752 
C 218.74213 157.694523 213.054092 155.338461 207.123971 155.338461 
C 201.193849 155.338461 195.505811 157.694523 191.312582 161.887752 
C 187.119353 166.080982 184.763291 171.769019 184.763291 177.699141 
C 184.763291 183.629262 187.119353 189.3173 191.312582 193.510529 
C 195.505811 197.703758 201.193849 200.05982 207.123971 200.05982 
z
" clip-path="url(#p4e440ffb73)" style="fill: #f06043; fill-opacity: 0.4; stroke: #f06043; stroke-opacity: 0.4"/>
    <path d="M 208.988944 244.178265 
C 213.38684 244.178265 217.605201 242.430962 220.714983 239.32118 
C 223.824765 236.211398 225.572068 231.993037 225.572068 227.595141 
C 225.572068 223.197245 223.824765 218.978883 220.714983 215.869101 
C 217.605201 212.759319 213.38684 211.012017 208.988944 211.012017 
C 204.591048 211.012017 200.372686 212.759319 197.262904 215.869101 
C 194.153122 218.978883 192.40582 223.197245 192.40582 227.595141 
C 192.40582 231.993037 194.153122 236.211398 197.262904 239.32118 
C 200.372686 242.430962 204.591048 244.178265 208.988944 244.178265 
z
" clip-path="url(#p4e440ffb73)" style="fill: #faebdd; fill-opacity: 0.4; stroke: #faebdd; stroke-opacity: 0.4"/>
    <path d="M 222.043757 210.000344 
C 227.669564 210.000344 233.06571 207.765187 237.043757 203.787141 
C 241.021803 199.809094 243.25696 194.412948 243.25696 188.787141 
C 243.25696 183.161333 241.021803 177.765187 237.043757 173.787141 
C 233.06571 169.809094 227.669564 167.573937 222.043757 167.573937 
C 216.417949 167.573937 211.021803 169.809094 207.043757 173.787141 
C 203.06571 177.765187 200.830553 183.161333 200.830553 188.787141 
C 200.830553 194.412948 203.06571 199.809094 207.043757 203.787141 
C 211.021803 207.765187 216.417949 210.000344 222.043757 210.000344 
z
" clip-path="url(#p4e440ffb73)" style="fill: #f4835b; fill-opacity: 0.4; stroke: #f4835b; stroke-opacity: 0.4"/>
    <path d="M 233.233596 214.946669 
C 238.700898 214.946669 243.94501 212.774487 247.810976 208.90852 
C 251.676942 205.042554 253.849124 199.798443 253.849124 194.331141 
C 253.849124 188.863839 251.676942 183.619727 247.810976 179.753761 
C 243.94501 175.887795 238.700898 173.715612 233.233596 173.715612 
C 227.766294 173.715612 222.522183 175.887795 218.656217 179.753761 
C 214.79025 183.619727 212.618068 188.863839 212.618068 194.331141 
C 212.618068 199.798443 214.79025 205.042554 218.656217 208.90852 
C 222.522183 212.774487 227.766294 214.946669 233.233596 214.946669 
z
" clip-path="url(#p4e440ffb73)" style="fill: #f5946b; fill-opacity: 0.4; stroke: #f5946b; stroke-opacity: 0.4"/>
    <path d="M 246.288409 239.371649 
C 250.881862 239.371649 255.287796 237.546651 258.535858 234.298589 
C 261.783919 231.050528 263.608917 226.644593 263.608917 222.051141 
C 263.608917 217.457688 261.783919 213.051753 258.535858 209.803692 
C 255.287796 206.555631 250.881862 204.730633 246.288409 204.730633 
C 241.694957 204.730633 237.289022 206.555631 234.04096 209.803692 
C 230.792899 213.051753 228.967901 217.457688 228.967901 222.051141 
C 228.967901 226.644593 230.792899 231.050528 234.04096 234.298589 
C 237.289022 237.546651 241.694957 239.371649 246.288409 239.371649 
z
" clip-path="url(#p4e440ffb73)" style="fill: #f9ddc9; fill-opacity: 0.4; stroke: #f9ddc9; stroke-opacity: 0.4"/>
    <path d="M 248.153382 229.671428 
C 253.114878 229.671428 257.873832 227.700204 261.382139 224.191897 
C 264.890446 220.68359 266.861669 215.924636 266.861669 210.963141 
C 266.861669 206.001645 264.890446 201.242691 261.382139 197.734384 
C 257.873832 194.226077 253.114878 192.254854 248.153382 192.254854 
C 243.191887 192.254854 238.432933 194.226077 234.924626 197.734384 
C 231.416319 201.242691 229.445095 206.001645 229.445095 210.963141 
C 229.445095 215.924636 231.416319 220.68359 234.924626 224.191897 
C 238.432933 227.700204 243.191887 229.671428 248.153382 229.671428 
z
" clip-path="url(#p4e440ffb73)" style="fill: #f6c19f; fill-opacity: 0.4; stroke: #f6c19f; stroke-opacity: 0.4"/>
    <path d="M 259.343222 210.000344 
C 264.969029 210.000344 270.365175 207.765187 274.343222 203.787141 
C 278.321268 199.809094 280.556425 194.412948 280.556425 188.787141 
C 280.556425 183.161333 278.321268 177.765187 274.343222 173.787141 
C 270.365175 169.809094 264.969029 167.573937 259.343222 167.573937 
C 253.717415 167.573937 248.321268 169.809094 244.343222 173.787141 
C 240.365175 177.765187 238.130018 183.161333 238.130018 188.787141 
C 238.130018 194.412948 240.365175 199.809094 244.343222 203.787141 
C 248.321268 207.765187 253.717415 210.000344 259.343222 210.000344 
z
" clip-path="url(#p4e440ffb73)" style="fill: #f4835b; fill-opacity: 0.4; stroke: #f4835b; stroke-opacity: 0.4"/>
    <path d="M 261.208195 244.178265 
C 265.606091 244.178265 269.824453 242.430962 272.934235 239.32118 
C 276.044017 236.211398 277.791319 231.993037 277.791319 227.595141 
C 277.791319 223.197245 276.044017 218.978883 272.934235 215.869101 
C 269.824453 212.759319 265.606091 211.012017 261.208195 211.012017 
C 256.810299 211.012017 252.591938 212.759319 249.482156 215.869101 
C 246.372374 218.978883 244.625071 223.197245 244.625071 227.595141 
C 244.625071 231.993037 246.372374 236.211398 249.482156 239.32118 
C 252.591938 242.430962 256.810299 244.178265 261.208195 244.178265 
z
" clip-path="url(#p4e440ffb73)" style="fill: #faebdd; fill-opacity: 0.4; stroke: #faebdd; stroke-opacity: 0.4"/>
    <path d="M 272.398035 174.979141 
C 279.028112 174.979141 285.387532 172.344983 290.075704 167.65681 
C 294.763877 162.968637 297.398035 156.609218 297.398035 149.979141 
C 297.398035 143.349063 294.763877 136.989644 290.075704 132.301471 
C 285.387532 127.613298 279.028112 124.979141 272.398035 124.979141 
C 265.767957 124.979141 259.408538 127.613298 254.720365 132.301471 
C 250.032192 136.989644 247.398035 143.349063 247.398035 149.979141 
C 247.398035 156.609218 250.032192 162.968637 254.720365 167.65681 
C 259.408538 172.344983 265.767957 174.979141 272.398035 174.979141 
z
" clip-path="url(#p4e440ffb73)" style="fill: #c41753; fill-opacity: 0.4; stroke: #c41753; stroke-opacity: 0.4"/>
    <path d="M 274.263008 234.534897 
C 279.044025 234.534897 283.629867 232.635379 287.010557 229.254689 
C 290.391246 225.874 292.290764 221.288158 292.290764 216.507141 
C 292.290764 211.726124 290.391246 207.140281 287.010557 203.759592 
C 283.629867 200.378902 279.044025 198.479384 274.263008 198.479384 
C 269.481991 198.479384 264.896149 200.378902 261.515459 203.759592 
C 258.13477 207.140281 256.235252 211.726124 256.235252 216.507141 
C 256.235252 221.288158 258.13477 225.874 261.515459 229.254689 
C 264.896149 232.635379 269.481991 234.534897 274.263008 234.534897 
z
" clip-path="url(#p4e440ffb73)" style="fill: #f7d0b5; fill-opacity: 0.4; stroke: #f7d0b5; stroke-opacity: 0.4"/>
    <path d="M 285.452848 224.784057 
C 290.588484 224.784057 295.514469 222.743648 299.145912 219.112205 
C 302.777355 215.480762 304.817764 210.554777 304.817764 205.419141 
C 304.817764 200.283505 302.777355 195.35752 299.145912 191.726077 
C 295.514469 188.094634 290.588484 186.054224 285.452848 186.054224 
C 280.317212 186.054224 275.391227 188.094634 271.759784 191.726077 
C 268.128341 195.35752 266.087931 200.283505 266.087931 205.419141 
C 266.087931 210.554777 268.128341 215.480762 271.759784 219.112205 
C 275.391227 222.743648 280.317212 224.784057 285.452848 224.784057 
z
" clip-path="url(#p4e440ffb73)" style="fill: #f6b38d; fill-opacity: 0.4; stroke: #f6b38d; stroke-opacity: 0.4"/>
    <path d="M 287.317821 113.864953 
C 295.383658 113.864953 303.120226 110.660362 308.823634 104.956954 
C 314.527042 99.253545 317.731634 91.516978 317.731634 83.451141 
C 317.731634 75.385303 314.527042 67.648736 308.823634 61.945327 
C 303.120226 56.241919 295.383658 53.037328 287.317821 53.037328 
C 279.251983 53.037328 271.515416 56.241919 265.812008 61.945327 
C 260.108599 67.648736 256.904008 75.385303 256.904008 83.451141 
C 256.904008 91.516978 260.108599 99.253545 265.812008 104.956954 
C 271.515416 110.660362 279.251983 113.864953 287.317821 113.864953 
z
" clip-path="url(#p4e440ffb73)" style="fill: #0e0b22; fill-opacity: 0.4; stroke: #0e0b22; stroke-opacity: 0.4"/>
    <path d="M 300.372634 108.729211 
C 308.546742 108.729211 316.387161 105.481603 322.167128 99.701635 
C 327.947096 93.921668 331.194704 86.081249 331.194704 77.907141 
C 331.194704 69.733032 327.947096 61.892613 322.167128 56.112646 
C 316.387161 50.332678 308.546742 47.085071 300.372634 47.085071 
C 292.198525 47.085071 284.358107 50.332678 278.578139 56.112646 
C 272.798171 61.892613 269.550564 69.733032 269.550564 77.907141 
C 269.550564 86.081249 272.798171 93.921668 278.578139 99.701635 
C 284.358107 105.481603 292.198525 108.729211 300.372634 108.729211 
z
" clip-path="url(#p4e440ffb73)" style="fill: #03051a; fill-opacity: 0.4; stroke: #03051a; stroke-opacity: 0.4"/>
    <path d="M 311.562473 205.037635 
C 317.342441 205.037635 322.886454 202.74123 326.973508 198.654176 
C 331.060563 194.567121 333.356968 189.023108 333.356968 183.243141 
C 333.356968 177.463173 331.060563 171.91916 326.973508 167.832106 
C 322.886454 163.745051 317.342441 161.448646 311.562473 161.448646 
C 305.782506 161.448646 300.238493 163.745051 296.151438 167.832106 
C 292.064384 171.91916 289.767979 177.463173 289.767979 183.243141 
C 289.767979 189.023108 292.064384 194.567121 296.151438 198.654176 
C 300.238493 202.74123 305.782506 205.037635 311.562473 205.037635 
z
" clip-path="url(#p4e440ffb73)" style="fill: #f3734e; fill-opacity: 0.4; stroke: #f3734e; stroke-opacity: 0.4"/>
    <path d="M 313.427447 244.178265 
C 317.825342 244.178265 322.043704 242.430962 325.153486 239.32118 
C 328.263268 236.211398 330.01057 231.993037 330.01057 227.595141 
C 330.01057 223.197245 328.263268 218.978883 325.153486 215.869101 
C 322.043704 212.759319 317.825342 211.012017 313.427447 211.012017 
C 309.029551 211.012017 304.811189 212.759319 301.701407 215.869101 
C 298.591625 218.978883 296.844323 223.197245 296.844323 227.595141 
C 296.844323 231.993037 298.591625 236.211398 301.701407 239.32118 
C 304.811189 242.430962 309.029551 244.178265 313.427447 244.178265 
z
" clip-path="url(#p4e440ffb73)" style="fill: #faebdd; fill-opacity: 0.4; stroke: #faebdd; stroke-opacity: 0.4"/>
    <path d="M 389.89135 239.371649 
C 394.484803 239.371649 398.890738 237.546651 402.138799 234.298589 
C 405.38686 231.050528 407.211858 226.644593 407.211858 222.051141 
C 407.211858 217.457688 405.38686 213.051753 402.138799 209.803692 
C 398.890738 206.555631 394.484803 204.730633 389.89135 204.730633 
C 385.297898 204.730633 380.891963 206.555631 377.643902 209.803692 
C 374.39584 213.051753 372.570842 217.457688 372.570842 222.051141 
C 372.570842 226.644593 374.39584 231.050528 377.643902 234.298589 
C 380.891963 237.546651 385.297898 239.371649 389.89135 239.371649 
z
" clip-path="url(#p4e440ffb73)" style="fill: #f9ddc9; fill-opacity: 0.4; stroke: #f9ddc9; stroke-opacity: 0.4"/>
    <path d="M 391.756324 205.037635 
C 397.536291 205.037635 403.080304 202.74123 407.167359 198.654176 
C 411.254413 194.567121 413.550818 189.023108 413.550818 183.243141 
C 413.550818 177.463173 411.254413 171.91916 407.167359 167.832106 
C 403.080304 163.745051 397.536291 161.448646 391.756324 161.448646 
C 385.976356 161.448646 380.432343 163.745051 376.345289 167.832106 
C 372.258234 171.91916 369.961829 177.463173 369.961829 183.243141 
C 369.961829 189.023108 372.258234 194.567121 376.345289 198.654176 
C 380.432343 202.74123 385.976356 205.037635 391.756324 205.037635 
z
" clip-path="url(#p4e440ffb73)" style="fill: #f3734e; fill-opacity: 0.4; stroke: #f3734e; stroke-opacity: 0.4"/>
    <path d="M 429.055789 214.946669 
C 434.523091 214.946669 439.767202 212.774487 443.633169 208.90852 
C 447.499135 205.042554 449.671317 199.798443 449.671317 194.331141 
C 449.671317 188.863839 447.499135 183.619727 443.633169 179.753761 
C 439.767202 175.887795 434.523091 173.715612 429.055789 173.715612 
C 423.588487 173.715612 418.344375 175.887795 414.478409 179.753761 
C 410.612443 183.619727 408.440261 188.863839 408.440261 194.331141 
C 408.440261 199.798443 410.612443 205.042554 414.478409 208.90852 
C 418.344375 212.774487 423.588487 214.946669 429.055789 214.946669 
z
" clip-path="url(#p4e440ffb73)" style="fill: #f5946b; fill-opacity: 0.4; stroke: #f5946b; stroke-opacity: 0.4"/>
    <path d="M 430.920762 205.037635 
C 436.70073 205.037635 442.244743 202.74123 446.331797 198.654176 
C 450.418851 194.567121 452.715257 189.023108 452.715257 183.243141 
C 452.715257 177.463173 450.418851 171.91916 446.331797 167.832106 
C 442.244743 163.745051 436.70073 161.448646 430.920762 161.448646 
C 425.140794 161.448646 419.596781 163.745051 415.509727 167.832106 
C 411.422673 171.91916 409.126267 177.463173 409.126267 183.243141 
C 409.126267 189.023108 411.422673 194.567121 415.509727 198.654176 
C 419.596781 202.74123 425.140794 205.037635 430.920762 205.037635 
z
" clip-path="url(#p4e440ffb73)" style="fill: #f3734e; fill-opacity: 0.4; stroke: #f3734e; stroke-opacity: 0.4"/>
    <path d="M 481.27504 174.979141 
C 487.905118 174.979141 494.264537 172.344983 498.95271 167.65681 
C 503.640882 162.968637 506.27504 156.609218 506.27504 149.979141 
C 506.27504 143.349063 503.640882 136.989644 498.95271 132.301471 
C 494.264537 127.613298 487.905118 124.979141 481.27504 124.979141 
C 474.644963 124.979141 468.285543 127.613298 463.597371 132.301471 
C 458.909198 136.989644 456.27504 143.349063 456.27504 149.979141 
C 456.27504 156.609218 458.909198 162.968637 463.597371 167.65681 
C 468.285543 172.344983 474.644963 174.979141 481.27504 174.979141 
z
" clip-path="url(#p4e440ffb73)" style="fill: #c41753; fill-opacity: 0.4; stroke: #c41753; stroke-opacity: 0.4"/>
    <path d="M 548.414078 219.875141 
C 553.71814 219.875141 558.805675 217.767814 562.556213 214.017276 
C 566.306751 210.266738 568.414078 205.179203 568.414078 199.875141 
C 568.414078 194.571079 566.306751 189.483543 562.556213 185.733005 
C 558.805675 181.982467 553.71814 179.875141 548.414078 179.875141 
C 543.110016 179.875141 538.02248 181.982467 534.271942 185.733005 
C 530.521404 189.483543 528.414078 194.571079 528.414078 199.875141 
C 528.414078 205.179203 530.521404 210.266738 534.271942 214.017276 
C 538.02248 217.767814 543.110016 219.875141 548.414078 219.875141 
z
" clip-path="url(#p4e440ffb73)" style="fill: #f6a37a; fill-opacity: 0.4; stroke: #f6a37a; stroke-opacity: 0.4"/>
    <path d="M 563.333864 244.178265 
C 567.73176 244.178265 571.950121 242.430962 575.059903 239.32118 
C 578.169685 236.211398 579.916988 231.993037 579.916988 227.595141 
C 579.916988 223.197245 578.169685 218.978883 575.059903 215.869101 
C 571.950121 212.759319 567.73176 211.012017 563.333864 211.012017 
C 558.935968 211.012017 554.717606 212.759319 551.607824 215.869101 
C 548.498042 218.978883 546.75074 223.197245 546.75074 227.595141 
C 546.75074 231.993037 548.498042 236.211398 551.607824 239.32118 
C 554.717606 242.430962 558.935968 244.178265 563.333864 244.178265 
z
" clip-path="url(#p4e440ffb73)" style="fill: #faebdd; fill-opacity: 0.4; stroke: #faebdd; stroke-opacity: 0.4"/>
   </g>
   <g id="patch_3">
    <path d="M 30.6975 288.579141 
L 30.6975 11.379141 
" style="fill: none; stroke: #ffffff; stroke-width: 1.25; stroke-linejoin: miter; stroke-linecap: square"/>
   </g>
   <g id="patch_4">
    <path d="M 588.6975 288.579141 
L 588.6975 11.379141 
" style="fill: none; stroke: #ffffff; stroke-width: 1.25; stroke-linejoin: miter; stroke-linecap: square"/>
   </g>
   <g id="patch_5">
    <path d="M 30.6975 288.579141 
L 588.6975 288.579141 
" style="fill: none; stroke: #ffffff; stroke-width: 1.25; stroke-linejoin: miter; stroke-linecap: square"/>
   </g>
   <g id="patch_6">
    <path d="M 30.6975 11.379141 
L 588.6975 11.379141 
" style="fill: none; stroke: #ffffff; stroke-width: 1.25; stroke-linejoin: miter; stroke-linecap: square"/>
   </g>
  </g>
 </g>
 <defs>
  <clipPath id="p4e440ffb73">
   <rect x="30.6975" y="11.379141" width="558" height="277.2"/>
  </clipPath>
 </defs>
</svg>
